<svg xmlns="http://www.w3.org/2000/svg" xmlns:xlink="http://www.w3.org/1999/xlink" width="1280" zoomAndPan="magnify" viewBox="0 0 960 599.999999" height="800" preserveAspectRatio="xMidYMid meet" version="1.0"><defs><clipPath id="id1"><path d="M 69 91.917969 L 76 91.917969 L 76 127 L 69 127 Z M 69 91.917969 " clip-rule="nonzero"/></clipPath><clipPath id="id2"><path d="M 51.164062 111 L 62 111 L 62 131 L 51.164062 131 Z M 51.164062 111 " clip-rule="nonzero"/></clipPath><clipPath id="id3"><path d="M 55 121 L 89 121 L 89 205.917969 L 55 205.917969 Z M 55 121 " clip-rule="nonzero"/></clipPath><clipPath id="id4"><path d="M 80 100 L 89 100 L 89 205.917969 L 80 205.917969 Z M 80 100 " clip-rule="nonzero"/></clipPath><clipPath id="id5"><path d="M 51.164062 112 L 59 112 L 59 129 L 51.164062 129 Z M 51.164062 112 " clip-rule="nonzero"/></clipPath><clipPath id="id6"><path d="M 55 125 L 71 125 L 71 205.917969 L 55 205.917969 Z M 55 125 " clip-rule="nonzero"/></clipPath><clipPath id="id7"><path d="M 108 91.917969 L 115 91.917969 L 115 127 L 108 127 Z M 108 91.917969 " clip-rule="nonzero"/></clipPath><clipPath id="id8"><path d="M 122 111 L 133.664062 111 L 133.664062 131 L 122 131 Z M 122 111 " clip-rule="nonzero"/></clipPath><clipPath id="id9"><path d="M 96 121 L 130 121 L 130 205.917969 L 96 205.917969 Z M 96 121 " clip-rule="nonzero"/></clipPath><clipPath id="id10"><path d="M 96 100 L 105 100 L 105 205.917969 L 96 205.917969 Z M 96 100 " clip-rule="nonzero"/></clipPath><clipPath id="id11"><path d="M 126 112 L 133.664062 112 L 133.664062 129 L 126 129 Z M 126 112 " clip-rule="nonzero"/></clipPath><clipPath id="id12"><path d="M 114 125 L 130 125 L 130 205.917969 L 114 205.917969 Z M 114 125 " clip-rule="nonzero"/></clipPath></defs><rect x="-96" width="1152" fill="#ffffff" y="-60" height="719.999999" fill-opacity="1"/><rect x="-96" width="1152" fill="#ff5f5a" y="-60" height="719.999999" fill-opacity="1"/><rect x="-96" width="1152" fill="#ffffff" y="-60" height="719.999999" fill-opacity="1"/><rect x="-96" width="1152" fill="#ff5f5a" y="-60" height="719.999999" fill-opacity="1"/><path fill="#f6a575" d="M 68.433594 97.082031 C 68.433594 95.40625 67.519531 94.117188 65.855469 94.117188 C 64.195312 94.117188 63.332031 95.515625 63.332031 97.191406 L 62.847656 124.121094 C 62.847656 125.792969 64.195312 127.152344 65.855469 127.152344 C 67.519531 127.152344 68.863281 123.730469 68.863281 122.058594 L 68.433594 97.082031 " fill-opacity="1" fill-rule="nonzero"/><path fill="#f6a575" d="M 82.402344 98.839844 C 82.402344 97.164062 81.378906 95.847656 79.714844 95.847656 C 78.054688 95.847656 77.03125 97.21875 77.03125 98.894531 L 76.707031 122.058594 C 76.707031 123.730469 78.054688 126.285156 79.714844 126.285156 C 81.378906 126.285156 82.726562 123.730469 82.726562 122.058594 L 82.402344 98.839844 " fill-opacity="1" fill-rule="nonzero"/><path fill="#f6a575" d="M 88.257812 103.332031 C 88.257812 102 87.421875 100.941406 86.101562 100.941406 C 84.78125 100.941406 83.90625 102.027344 83.90625 103.355469 L 83.707031 122.058594 C 83.707031 123.386719 84.78125 126.285156 86.101562 126.285156 C 87.421875 126.285156 88.488281 125.207031 88.488281 123.878906 L 88.257812 103.332031 " fill-opacity="1" fill-rule="nonzero"/><g clip-path="url(#id1)"><path fill="#f6a575" d="M 75.632812 94.945312 C 75.632812 93.273438 74.609375 91.953125 72.949219 91.953125 C 71.285156 91.953125 70.289062 93.40625 70.289062 95.082031 L 69.941406 122.058594 C 69.941406 123.730469 71.285156 126.285156 72.949219 126.285156 C 74.609375 126.285156 75.957031 123.730469 75.957031 122.058594 L 75.632812 94.945312 " fill-opacity="1" fill-rule="nonzero"/></g><g clip-path="url(#id2)"><path fill="#f6a575" d="M 58.40625 127.945312 C 57.332031 127.945312 55.121094 130.519531 55.210938 129.992188 C 55.703125 127.105469 55.671875 126.296875 55.648438 125.890625 C 55.550781 123.933594 55.253906 121.964844 54.660156 120.097656 C 54.460938 119.476562 54.246094 118.863281 53.953125 118.285156 C 53.738281 117.863281 53.449219 117.484375 53.1875 117.097656 C 52.875 116.636719 52.5625 116.175781 52.246094 115.71875 C 51.367188 114.441406 51.167969 112.347656 52.605469 111.785156 C 53.628906 111.382812 55.285156 111.316406 56.859375 112.339844 C 59.34375 113.960938 61.523438 117.6875 61.828125 123.671875 C 61.90625 125.222656 60.59375 127.792969 59.054688 127.871094 C 59.003906 127.875 58.457031 127.945312 58.40625 127.945312 " fill-opacity="1" fill-rule="nonzero"/></g><g clip-path="url(#id3)"><path fill="#f6a575" d="M 88.488281 122.058594 L 83.707031 122.058594 C 83.707031 122.058594 83.839844 122.84375 83.261719 122.84375 C 83.035156 122.84375 82.765625 122.875 82.726562 122.058594 L 76.707031 122.058594 C 76.707031 122.058594 76.773438 122.695312 76.375 122.679688 C 76.023438 122.667969 75.984375 122.492188 75.957031 122.058594 L 69.941406 122.058594 C 69.941406 122.058594 69.964844 122.65625 69.363281 122.671875 C 69.082031 122.675781 68.863281 122.554688 68.863281 122.058594 L 62.894531 121.445312 C 62.894531 121.445312 62.964844 124.464844 62.480469 124.535156 C 61.949219 124.613281 61.917969 124.527344 61.792969 123.089844 L 55.6875 127.722656 C 55.6875 127.722656 52.824219 134.722656 60.238281 145.101562 C 60.96875 146.054688 61.710938 147 62.433594 147.960938 C 63 148.710938 63.574219 149.460938 64.140625 150.210938 C 66.390625 153.195312 65.660156 156.359375 65.457031 159.832031 C 65.132812 165.398438 65.039062 170.980469 64.867188 176.550781 C 64.722656 181.039062 64.578125 185.527344 64.433594 190.011719 C 64.320312 193.617188 64.203125 197.226562 64.089844 200.832031 C 64.035156 202.488281 63.984375 204.148438 63.929688 205.808594 L 63.925781 205.917969 L 85.035156 205.917969 C 84.992188 204.5625 84.953125 203.207031 84.910156 201.851562 C 84.808594 198.5 84.703125 195.144531 84.601562 191.792969 C 84.46875 187.441406 84.335938 183.089844 84.203125 178.738281 C 83.996094 171.859375 83.859375 164.980469 83.398438 158.113281 C 83.277344 156.304688 83.121094 154.476562 83.5 152.683594 C 83.828125 151.144531 84.761719 149.90625 85.351562 148.476562 C 87.222656 143.953125 87.960938 139.148438 88.257812 134.277344 C 88.546875 129.519531 88.671875 126.824219 88.488281 122.058594 " fill-opacity="1" fill-rule="nonzero"/></g><g clip-path="url(#id4)"><path fill="#f59f74" d="M 88.488281 122.058594 L 88.46875 122.058594 L 88.257812 103.332031 C 88.257812 102.03125 87.457031 100.996094 86.195312 100.949219 C 86.496094 100.957031 86.71875 112.609375 86.730469 113.8125 C 86.75 115.796875 86.730469 117.78125 86.667969 119.765625 C 86.445312 126.890625 87.722656 133.945312 85.53125 140.902344 C 84.289062 144.84375 82.175781 148.820312 81.738281 152.96875 C 81.257812 157.539062 81.503906 162.214844 81.546875 166.808594 C 81.59375 171.828125 81.675781 176.855469 81.644531 181.878906 C 81.609375 186.734375 81.507812 191.589844 81.335938 196.441406 C 81.226562 199.589844 81.164062 202.835938 80.421875 205.917969 C 83.109375 205.917969 85.035156 205.917969 85.035156 205.917969 C 84.992188 204.5625 84.953125 203.207031 84.910156 201.851562 C 84.808594 198.5 84.703125 195.144531 84.601562 191.792969 C 84.46875 187.441406 84.335938 183.089844 84.203125 178.738281 C 83.996094 171.859375 83.859375 164.980469 83.398438 158.113281 C 83.277344 156.304688 83.121094 154.476562 83.5 152.683594 C 83.828125 151.144531 84.761719 149.90625 85.351562 148.476562 C 87.222656 143.953125 87.960938 139.148438 88.257812 134.277344 C 88.546875 129.519531 88.671875 126.824219 88.488281 122.058594 " fill-opacity="1" fill-rule="nonzero"/></g><path fill="#ffffff" d="M 60.226562 145.082031 C 60.226562 145.078125 60.222656 145.078125 60.222656 145.074219 C 60.222656 145.078125 60.226562 145.078125 60.226562 145.082031 M 60.214844 145.0625 C 60.210938 145.0625 60.210938 145.058594 60.210938 145.058594 C 60.210938 145.058594 60.210938 145.0625 60.214844 145.0625 M 60.199219 145.039062 C 60.199219 145.039062 60.199219 145.039062 60.195312 145.039062 C 60.199219 145.039062 60.199219 145.039062 60.199219 145.039062 M 60.183594 145.019531 C 60.183594 145.019531 60.179688 145.019531 60.179688 145.015625 C 60.179688 145.019531 60.183594 145.019531 60.183594 145.019531 M 60.171875 145.003906 C 60.167969 145 60.167969 145 60.167969 144.996094 C 60.167969 145 60.167969 145 60.171875 145.003906 M 60.15625 144.980469 C 60.15625 144.980469 60.152344 144.980469 60.152344 144.980469 C 60.152344 144.980469 60.152344 144.980469 60.15625 144.980469 M 60.140625 144.960938 C 60.140625 144.960938 60.136719 144.957031 60.136719 144.957031 C 60.136719 144.957031 60.140625 144.960938 60.140625 144.960938 M 60.128906 144.941406 C 60.125 144.941406 60.125 144.9375 60.125 144.9375 C 60.125 144.9375 60.125 144.941406 60.128906 144.941406 M 60.113281 144.921875 C 60.113281 144.921875 60.113281 144.917969 60.109375 144.917969 C 60.113281 144.917969 60.113281 144.921875 60.113281 144.921875 M 60.097656 144.902344 C 60.097656 144.898438 60.097656 144.898438 60.09375 144.894531 C 60.097656 144.898438 60.097656 144.898438 60.097656 144.902344 M 60.085938 144.882812 C 60.085938 144.878906 60.082031 144.878906 60.082031 144.878906 C 60.082031 144.878906 60.085938 144.882812 60.085938 144.882812 M 60.070312 144.863281 C 60.070312 144.859375 60.070312 144.859375 60.070312 144.859375 C 60.070312 144.859375 60.070312 144.859375 60.070312 144.863281 M 60.054688 144.839844 C 60.054688 144.839844 60.054688 144.835938 60.054688 144.835938 C 60.054688 144.835938 60.054688 144.839844 60.054688 144.839844 M 60.042969 144.824219 C 60.042969 144.820312 60.039062 144.820312 60.039062 144.816406 C 60.039062 144.820312 60.039062 144.820312 60.042969 144.824219 M 60.03125 144.804688 C 60.027344 144.800781 60.027344 144.800781 60.027344 144.796875 C 60.027344 144.800781 60.027344 144.800781 60.03125 144.804688 M 60.015625 144.78125 C 60.011719 144.777344 60.011719 144.777344 60.007812 144.773438 C 60.011719 144.777344 60.011719 144.777344 60.015625 144.78125 M 60 144.761719 C 60 144.761719 59.996094 144.757812 59.996094 144.753906 C 59.996094 144.757812 60 144.761719 60 144.761719 M 59.988281 144.746094 C 59.988281 144.742188 59.984375 144.742188 59.984375 144.738281 C 59.984375 144.742188 59.988281 144.742188 59.988281 144.746094 M 59.972656 144.722656 C 59.96875 144.71875 59.96875 144.714844 59.964844 144.710938 C 59.96875 144.714844 59.96875 144.71875 59.972656 144.722656 M 59.960938 144.703125 C 59.957031 144.699219 59.957031 144.699219 59.953125 144.695312 C 59.957031 144.699219 59.957031 144.699219 59.960938 144.703125 M 59.949219 144.6875 C 59.945312 144.683594 59.945312 144.679688 59.941406 144.675781 C 59.945312 144.679688 59.945312 144.683594 59.949219 144.6875 M 59.9375 144.671875 C 59.933594 144.664062 59.925781 144.65625 59.921875 144.648438 C 59.929688 144.65625 59.933594 144.664062 59.9375 144.671875 M 59.917969 144.644531 C 59.917969 144.640625 59.914062 144.636719 59.910156 144.632812 C 59.914062 144.636719 59.917969 144.640625 59.917969 144.644531 M 59.90625 144.628906 C 59.90625 144.625 59.902344 144.621094 59.898438 144.617188 C 59.902344 144.621094 59.90625 144.625 59.90625 144.628906 M 59.898438 144.613281 C 59.890625 144.605469 59.886719 144.597656 59.878906 144.589844 C 59.886719 144.597656 59.890625 144.605469 59.898438 144.613281 M 59.878906 144.585938 C 59.875 144.582031 59.871094 144.578125 59.871094 144.574219 C 59.871094 144.578125 59.875 144.582031 59.878906 144.585938 M 59.867188 144.570312 C 59.859375 144.554688 59.847656 144.542969 59.839844 144.527344 C 59.847656 144.542969 59.859375 144.554688 59.867188 144.570312 M 59.835938 144.527344 C 59.835938 144.519531 59.832031 144.515625 59.828125 144.511719 C 59.832031 144.515625 59.835938 144.519531 59.835938 144.527344 M 59.828125 144.507812 C 57.226562 140.71875 56 137.398438 55.476562 134.734375 C 56 137.398438 57.226562 140.71875 59.828125 144.507812 M 55.476562 134.730469 C 55.476562 134.730469 55.476562 134.726562 55.476562 134.726562 C 55.476562 134.726562 55.476562 134.726562 55.476562 134.730469 " fill-opacity="1" fill-rule="nonzero"/><g clip-path="url(#id5)"><path fill="#f6ae81" d="M 55.433594 128.597656 C 55.691406 126.820312 55.667969 126.222656 55.648438 125.890625 C 55.550781 123.933594 55.253906 121.964844 54.660156 120.097656 C 54.460938 119.476562 54.246094 118.863281 53.953125 118.285156 C 53.738281 117.863281 53.449219 117.484375 53.1875 117.097656 C 52.875 116.636719 52.5625 116.175781 52.246094 115.71875 C 51.496094 114.628906 51.242188 112.945312 52.078125 112.125 C 52.5625 112.460938 53.054688 112.785156 53.550781 113.109375 C 54.894531 113.976562 55.578125 115.066406 56.320312 116.464844 C 56.839844 117.4375 57.238281 118.503906 57.546875 119.609375 C 57.636719 121.351562 57.742188 123.09375 58.003906 124.828125 C 58.058594 125.164062 58.105469 125.507812 58.15625 125.847656 L 55.6875 127.722656 C 55.6875 127.722656 55.5625 128.027344 55.433594 128.597656 " fill-opacity="1" fill-rule="nonzero"/></g><g clip-path="url(#id6)"><path fill="#f6ae81" d="M 67.691406 205.917969 L 63.925781 205.917969 L 63.929688 205.808594 C 63.984375 204.148438 64.035156 202.488281 64.089844 200.832031 C 64.203125 197.226562 64.320312 193.617188 64.433594 190.011719 C 64.578125 185.527344 64.722656 181.039062 64.867188 176.550781 C 65.039062 170.980469 65.132812 165.398438 65.457031 159.832031 C 65.542969 158.324219 65.734375 156.871094 65.730469 155.46875 C 65.730469 153.644531 65.414062 151.898438 64.140625 150.210938 C 63.574219 149.460938 63 148.710938 62.433594 147.960938 C 61.710938 147 60.96875 146.054688 60.238281 145.101562 C 60.234375 145.09375 60.230469 145.089844 60.226562 145.082031 C 60.226562 145.078125 60.222656 145.078125 60.222656 145.074219 C 60.21875 145.070312 60.214844 145.066406 60.214844 145.0625 C 60.210938 145.0625 60.210938 145.058594 60.210938 145.058594 C 60.207031 145.050781 60.203125 145.046875 60.199219 145.039062 C 60.199219 145.039062 60.199219 145.039062 60.195312 145.039062 C 60.191406 145.035156 60.1875 145.027344 60.183594 145.019531 C 60.183594 145.019531 60.179688 145.019531 60.179688 145.015625 C 60.175781 145.011719 60.175781 145.007812 60.171875 145.003906 C 60.167969 145 60.167969 145 60.167969 144.996094 C 60.164062 144.992188 60.160156 144.984375 60.15625 144.980469 C 60.152344 144.980469 60.152344 144.980469 60.152344 144.980469 C 60.148438 144.972656 60.144531 144.96875 60.140625 144.960938 C 60.140625 144.960938 60.136719 144.957031 60.136719 144.957031 C 60.132812 144.953125 60.132812 144.949219 60.128906 144.941406 C 60.125 144.941406 60.125 144.9375 60.125 144.9375 C 60.121094 144.929688 60.117188 144.925781 60.113281 144.921875 C 60.113281 144.921875 60.113281 144.917969 60.109375 144.917969 C 60.105469 144.914062 60.101562 144.90625 60.097656 144.902344 C 60.097656 144.898438 60.097656 144.898438 60.09375 144.894531 C 60.09375 144.890625 60.089844 144.886719 60.085938 144.882812 C 60.085938 144.882812 60.082031 144.878906 60.082031 144.878906 C 60.078125 144.871094 60.074219 144.867188 60.070312 144.863281 C 60.070312 144.859375 60.070312 144.859375 60.070312 144.859375 C 60.066406 144.851562 60.0625 144.847656 60.054688 144.839844 C 60.054688 144.839844 60.054688 144.835938 60.054688 144.835938 C 60.050781 144.832031 60.046875 144.828125 60.042969 144.824219 C 60.039062 144.820312 60.039062 144.820312 60.039062 144.816406 C 60.035156 144.8125 60.03125 144.808594 60.03125 144.804688 C 60.027344 144.800781 60.027344 144.800781 60.027344 144.796875 C 60.023438 144.792969 60.019531 144.785156 60.015625 144.78125 C 60.011719 144.777344 60.011719 144.777344 60.007812 144.773438 C 60.007812 144.769531 60.003906 144.765625 60 144.761719 C 60 144.761719 59.996094 144.757812 59.996094 144.753906 C 59.992188 144.75 59.992188 144.75 59.988281 144.746094 C 59.988281 144.742188 59.984375 144.742188 59.984375 144.738281 C 59.980469 144.730469 59.976562 144.726562 59.972656 144.722656 C 59.96875 144.71875 59.96875 144.714844 59.964844 144.710938 C 59.964844 144.710938 59.960938 144.707031 59.960938 144.703125 C 59.957031 144.699219 59.957031 144.699219 59.953125 144.695312 C 59.953125 144.691406 59.949219 144.691406 59.949219 144.6875 C 59.945312 144.683594 59.945312 144.679688 59.941406 144.675781 C 59.941406 144.675781 59.941406 144.671875 59.9375 144.671875 C 59.933594 144.664062 59.929688 144.65625 59.921875 144.648438 C 59.921875 144.648438 59.921875 144.644531 59.917969 144.644531 C 59.917969 144.640625 59.914062 144.636719 59.910156 144.632812 C 59.910156 144.632812 59.910156 144.628906 59.90625 144.628906 C 59.90625 144.625 59.902344 144.621094 59.898438 144.617188 C 59.898438 144.617188 59.898438 144.613281 59.898438 144.613281 C 59.890625 144.605469 59.886719 144.597656 59.878906 144.589844 C 59.878906 144.585938 59.878906 144.585938 59.878906 144.585938 C 59.875 144.582031 59.871094 144.578125 59.871094 144.574219 C 59.867188 144.570312 59.867188 144.570312 59.867188 144.570312 C 59.859375 144.554688 59.847656 144.542969 59.839844 144.527344 C 59.839844 144.527344 59.839844 144.527344 59.835938 144.527344 C 59.835938 144.519531 59.832031 144.515625 59.828125 144.511719 C 59.828125 144.511719 59.828125 144.511719 59.828125 144.507812 C 57.226562 140.71875 56 137.398438 55.476562 134.734375 C 55.476562 134.734375 55.476562 134.730469 55.476562 134.730469 C 55.476562 134.726562 55.476562 134.726562 55.476562 134.726562 C 55.09375 132.769531 55.09375 131.167969 55.214844 129.992188 L 55.210938 129.992188 L 55.214844 129.980469 C 55.269531 129.421875 55.351562 128.964844 55.433594 128.605469 C 55.433594 128.605469 55.433594 128.601562 55.433594 128.597656 C 55.5625 128.027344 55.6875 127.722656 55.6875 127.722656 L 58.15625 125.847656 C 58.179688 126.019531 58.207031 126.1875 58.230469 126.359375 C 58.308594 126.886719 58.386719 127.410156 58.464844 127.9375 C 59.011719 131.640625 59.605469 135.402344 60.667969 138.9375 C 61.9375 143.179688 64.351562 146.996094 66.472656 150.84375 C 70.882812 158.851562 70.253906 167.949219 69.609375 176.773438 C 68.90625 186.480469 67.769531 196.179688 67.691406 205.917969 " fill-opacity="1" fill-rule="nonzero"/></g><path fill="#f6a575" d="M 116.390625 97.082031 C 116.390625 95.40625 117.308594 94.117188 118.96875 94.117188 C 120.628906 94.117188 121.492188 95.515625 121.492188 97.191406 L 121.976562 124.121094 C 121.976562 125.792969 120.628906 127.152344 118.96875 127.152344 C 117.308594 127.152344 115.960938 123.730469 115.960938 122.058594 L 116.390625 97.082031 " fill-opacity="1" fill-rule="nonzero"/><path fill="#f6a575" d="M 102.421875 98.839844 C 102.421875 97.164062 103.449219 95.847656 105.109375 95.847656 C 106.769531 95.847656 107.792969 97.21875 107.792969 98.894531 L 108.117188 122.058594 C 108.117188 123.730469 106.769531 126.285156 105.109375 126.285156 C 103.449219 126.285156 102.101562 123.730469 102.101562 122.058594 L 102.421875 98.839844 " fill-opacity="1" fill-rule="nonzero"/><path fill="#f6a575" d="M 96.566406 103.332031 C 96.566406 102 97.40625 100.941406 98.726562 100.941406 C 100.046875 100.941406 100.917969 102.027344 100.917969 103.355469 L 101.117188 122.058594 C 101.117188 123.386719 100.046875 126.285156 98.726562 126.285156 C 97.40625 126.285156 96.335938 125.207031 96.335938 123.878906 L 96.566406 103.332031 " fill-opacity="1" fill-rule="nonzero"/><g clip-path="url(#id7)"><path fill="#f6a575" d="M 109.191406 94.945312 C 109.191406 93.273438 110.214844 91.953125 111.878906 91.953125 C 113.539062 91.953125 114.535156 93.40625 114.535156 95.082031 L 114.886719 122.058594 C 114.886719 123.730469 113.539062 126.285156 111.878906 126.285156 C 110.214844 126.285156 108.871094 123.730469 108.871094 122.058594 L 109.191406 94.945312 " fill-opacity="1" fill-rule="nonzero"/></g><g clip-path="url(#id8)"><path fill="#f6a575" d="M 126.417969 127.945312 C 127.492188 127.945312 129.703125 130.519531 129.613281 129.992188 C 129.121094 127.105469 129.152344 126.296875 129.175781 125.890625 C 129.277344 123.933594 129.570312 121.964844 130.167969 120.097656 C 130.363281 119.476562 130.582031 118.863281 130.875 118.285156 C 131.085938 117.863281 131.375 117.484375 131.640625 117.097656 C 131.953125 116.636719 132.261719 116.175781 132.578125 115.71875 C 133.457031 114.441406 133.660156 112.347656 132.222656 111.785156 C 131.195312 111.382812 129.539062 111.316406 127.96875 112.339844 C 125.484375 113.960938 123.304688 117.6875 122.996094 123.671875 C 122.917969 125.222656 124.230469 127.792969 125.773438 127.871094 C 125.820312 127.875 126.367188 127.945312 126.417969 127.945312 " fill-opacity="1" fill-rule="nonzero"/></g><g clip-path="url(#id9)"><path fill="#f6a575" d="M 96.335938 122.058594 L 101.117188 122.058594 C 101.117188 122.058594 100.988281 122.84375 101.5625 122.84375 C 101.789062 122.84375 102.0625 122.875 102.101562 122.058594 L 108.117188 122.058594 C 108.117188 122.058594 108.050781 122.695312 108.449219 122.679688 C 108.800781 122.667969 108.84375 122.492188 108.871094 122.058594 L 114.886719 122.058594 C 114.886719 122.058594 114.859375 122.65625 115.464844 122.671875 C 115.742188 122.675781 115.960938 122.554688 115.960938 122.058594 L 121.929688 121.445312 C 121.929688 121.445312 121.863281 124.464844 122.34375 124.535156 C 122.878906 124.613281 122.90625 124.527344 123.035156 123.089844 L 129.140625 127.722656 C 129.140625 127.722656 132 134.722656 124.585938 145.101562 C 123.855469 146.054688 123.113281 147 122.390625 147.960938 C 121.824219 148.710938 121.25 149.460938 120.683594 150.210938 C 118.4375 153.195312 119.167969 156.359375 119.367188 159.832031 C 119.691406 165.398438 119.785156 170.980469 119.960938 176.550781 C 120.101562 181.039062 120.246094 185.527344 120.390625 190.011719 C 120.503906 193.617188 120.621094 197.226562 120.738281 200.832031 C 120.789062 202.488281 120.84375 204.148438 120.894531 205.808594 L 120.898438 205.917969 L 99.789062 205.917969 C 99.832031 204.5625 99.875 203.207031 99.914062 201.851562 C 100.015625 198.5 100.121094 195.144531 100.222656 191.792969 C 100.355469 187.441406 100.488281 183.089844 100.621094 178.738281 C 100.832031 171.859375 100.964844 164.980469 101.425781 158.113281 C 101.550781 156.304688 101.707031 154.476562 101.324219 152.683594 C 101 151.144531 100.066406 149.90625 99.472656 148.476562 C 97.601562 143.953125 96.863281 139.148438 96.566406 134.277344 C 96.28125 129.519531 96.152344 126.824219 96.335938 122.058594 " fill-opacity="1" fill-rule="nonzero"/></g><g clip-path="url(#id10)"><path fill="#f59f74" d="M 96.335938 122.058594 L 96.355469 122.058594 L 96.566406 103.332031 C 96.566406 102.03125 97.367188 100.996094 98.632812 100.949219 C 98.328125 100.957031 98.105469 112.609375 98.09375 113.8125 C 98.074219 115.796875 98.097656 117.78125 98.15625 119.765625 C 98.378906 126.890625 97.101562 133.945312 99.296875 140.902344 C 100.539062 144.84375 102.652344 148.820312 103.085938 152.96875 C 103.566406 157.539062 103.324219 162.214844 103.277344 166.808594 C 103.230469 171.828125 103.148438 176.855469 103.183594 181.878906 C 103.214844 186.734375 103.316406 191.589844 103.488281 196.441406 C 103.597656 199.589844 103.660156 202.835938 104.40625 205.917969 C 101.71875 205.917969 99.789062 205.917969 99.789062 205.917969 C 99.832031 204.5625 99.875 203.207031 99.914062 201.851562 C 100.015625 198.5 100.121094 195.144531 100.222656 191.792969 C 100.355469 187.441406 100.488281 183.089844 100.621094 178.738281 C 100.832031 171.859375 100.964844 164.980469 101.425781 158.113281 C 101.550781 156.304688 101.707031 154.476562 101.324219 152.683594 C 101 151.144531 100.066406 149.90625 99.472656 148.476562 C 97.601562 143.953125 96.863281 139.148438 96.566406 134.277344 C 96.28125 129.519531 96.152344 126.824219 96.335938 122.058594 " fill-opacity="1" fill-rule="nonzero"/></g><path fill="#ffffff" d="M 124.597656 145.082031 C 124.597656 145.078125 124.601562 145.078125 124.601562 145.074219 C 124.601562 145.078125 124.597656 145.078125 124.597656 145.082031 M 124.609375 145.066406 C 124.613281 145.0625 124.613281 145.058594 124.617188 145.054688 C 124.613281 145.058594 124.613281 145.0625 124.609375 145.066406 M 124.621094 145.050781 C 124.632812 145.035156 124.640625 145.023438 124.648438 145.007812 C 124.640625 145.023438 124.628906 145.035156 124.621094 145.050781 M 124.648438 145.007812 C 127.199219 141.417969 128.519531 138.234375 129.15625 135.609375 C 128.519531 138.234375 127.199219 141.417969 124.648438 145.007812 M 129.15625 135.609375 C 129.15625 135.605469 129.15625 135.601562 129.15625 135.597656 C 129.15625 135.601562 129.15625 135.605469 129.15625 135.609375 M 129.390625 128.59375 C 129.132812 126.820312 129.15625 126.21875 129.175781 125.890625 C 129.277344 123.933594 129.570312 121.964844 130.167969 120.097656 C 130.363281 119.476562 130.582031 118.863281 130.875 118.285156 C 131.085938 117.863281 131.375 117.484375 131.640625 117.097656 C 131.953125 116.636719 132.261719 116.175781 132.578125 115.71875 C 132.261719 116.175781 131.953125 116.636719 131.640625 117.097656 C 131.375 117.484375 131.085938 117.863281 130.875 118.285156 C 130.582031 118.863281 130.363281 119.476562 130.167969 120.097656 C 129.570312 121.964844 129.277344 123.933594 129.175781 125.890625 C 129.15625 126.21875 129.132812 126.820312 129.390625 128.59375 " fill-opacity="1" fill-rule="nonzero"/><g clip-path="url(#id11)"><path fill="#f6ae81" d="M 129.390625 128.59375 C 129.261719 128.023438 129.140625 127.722656 129.140625 127.722656 L 126.667969 125.847656 C 126.71875 125.507812 126.769531 125.164062 126.820312 124.828125 C 127.082031 123.09375 127.191406 121.351562 127.28125 119.609375 C 127.585938 118.503906 127.984375 117.4375 128.503906 116.464844 C 129.25 115.066406 129.929688 113.976562 131.273438 113.109375 C 131.773438 112.785156 132.261719 112.460938 132.746094 112.125 C 133.582031 112.945312 133.328125 114.628906 132.578125 115.71875 C 132.261719 116.175781 131.953125 116.636719 131.640625 117.097656 C 131.375 117.484375 131.085938 117.863281 130.875 118.285156 C 130.582031 118.863281 130.363281 119.476562 130.167969 120.097656 C 129.570312 121.964844 129.277344 123.933594 129.175781 125.890625 C 129.15625 126.21875 129.132812 126.820312 129.390625 128.59375 " fill-opacity="1" fill-rule="nonzero"/></g><g clip-path="url(#id12)"><path fill="#f6ae81" d="M 120.898438 205.917969 L 117.132812 205.917969 C 117.054688 196.179688 115.921875 186.480469 115.214844 176.773438 C 114.570312 167.949219 113.941406 158.851562 118.351562 150.84375 C 120.472656 146.996094 122.886719 143.179688 124.160156 138.9375 C 125.21875 135.402344 125.816406 131.640625 126.359375 127.9375 C 126.4375 127.410156 126.515625 126.886719 126.59375 126.359375 C 126.621094 126.1875 126.644531 126.019531 126.667969 125.847656 L 129.140625 127.722656 C 129.140625 127.722656 129.261719 128.023438 129.390625 128.59375 C 129.390625 128.597656 129.394531 128.601562 129.394531 128.605469 C 129.472656 128.964844 129.554688 129.421875 129.613281 129.980469 L 129.613281 129.992188 C 129.746094 131.339844 129.726562 133.242188 129.15625 135.597656 C 129.15625 135.601562 129.15625 135.605469 129.15625 135.609375 C 128.519531 138.234375 127.199219 141.417969 124.648438 145.007812 C 124.640625 145.023438 124.632812 145.035156 124.621094 145.050781 C 124.621094 145.050781 124.617188 145.054688 124.617188 145.054688 C 124.613281 145.058594 124.613281 145.0625 124.609375 145.066406 C 124.605469 145.066406 124.605469 145.070312 124.601562 145.074219 C 124.601562 145.078125 124.597656 145.078125 124.597656 145.082031 C 124.59375 145.089844 124.589844 145.09375 124.585938 145.101562 C 123.855469 146.054688 123.113281 147 122.390625 147.960938 C 121.824219 148.710938 121.25 149.460938 120.683594 150.210938 C 119.414062 151.898438 119.09375 153.644531 119.09375 155.46875 C 119.09375 156.871094 119.28125 158.324219 119.367188 159.832031 C 119.691406 165.398438 119.785156 170.980469 119.960938 176.550781 C 120.101562 181.039062 120.246094 185.527344 120.390625 190.011719 C 120.503906 193.617188 120.621094 197.226562 120.738281 200.832031 C 120.789062 202.488281 120.84375 204.148438 120.894531 205.808594 L 120.898438 205.917969 " fill-opacity="1" fill-rule="nonzero"/></g><path fill="#cc2525" d="M 122.824219 109.757812 C 122.824219 109.757812 118.835938 98.488281 106.242188 98.488281 C 106.242188 98.488281 91.902344 98.488281 92.597656 114.265625 C 92 100.6875 80.070312 99.097656 76.527344 99.238281 C 66.460938 99.640625 63.695312 105.816406 62.367188 109.757812 C 53.640625 135.664062 92.597656 154.082031 92.597656 154.082031 C 92.597656 154.082031 129.964844 136.050781 122.824219 109.757812 " fill-opacity="1" fill-rule="nonzero"/><path fill="#b72020" d="M 122.824219 109.757812 C 122.824219 109.757812 118.835938 98.488281 106.242188 98.488281 C 106.242188 98.488281 93.023438 98.492188 92.585938 112.457031 L 92.585938 113.90625 C 92.589844 114.027344 92.589844 114.144531 92.597656 114.265625 C 92.59375 114.203125 92.589844 114.144531 92.585938 114.082031 L 92.585938 154.074219 L 92.597656 154.082031 C 92.597656 154.082031 129.964844 136.050781 122.824219 109.757812 " fill-opacity="1" fill-rule="nonzero"/><path fill="#cc2525" d="M 75.117188 195.476562 C 75.492188 191.722656 75.585938 187.933594 75.585938 184.15625 C 75.585938 181.480469 75.539062 178.808594 75.515625 176.160156 C 75.511719 175.738281 75.507812 175.320312 75.507812 174.902344 C 75.507812 172.144531 75.597656 169.421875 75.804688 166.65625 C 75.917969 165.101562 76.125 163.140625 76.71875 161.46875 C 77.015625 160.632812 77.40625 159.871094 77.914062 159.265625 C 78.421875 158.660156 79.042969 158.203125 79.839844 157.945312 C 80.316406 157.789062 80.746094 157.722656 81.132812 157.722656 C 81.742188 157.722656 82.25 157.882812 82.710938 158.164062 C 83.398438 158.582031 83.964844 159.296875 84.398438 160.167969 C 84.832031 161.035156 85.125 162.046875 85.296875 163.011719 C 85.441406 163.828125 85.46875 164.882812 85.46875 166.03125 C 85.46875 166.492188 85.464844 166.96875 85.464844 167.453125 C 85.464844 169.09375 85.503906 170.832031 85.882812 172.390625 C 86.074219 173.171875 86.351562 173.90625 86.765625 174.5625 C 87.179688 175.214844 87.734375 175.78125 88.449219 176.199219 C 89.136719 176.605469 89.839844 176.792969 90.511719 176.789062 C 91.617188 176.789062 92.609375 176.289062 93.363281 175.550781 C 94.121094 174.808594 94.667969 173.820312 94.914062 172.773438 C 95.183594 171.640625 95.28125 170.496094 95.28125 169.355469 C 95.277344 167.332031 94.972656 165.320312 94.746094 163.394531 C 94.367188 160.21875 93.765625 156.449219 93.082031 153.320312 L 92.09375 153.542969 C 92.765625 156.625 93.367188 160.371094 93.742188 163.515625 C 93.972656 165.464844 94.265625 167.4375 94.265625 169.355469 C 94.265625 170.4375 94.175781 171.5 93.929688 172.539062 C 93.730469 173.398438 93.269531 174.226562 92.660156 174.816406 C 92.046875 175.414062 91.304688 175.773438 90.511719 175.773438 C 90.023438 175.773438 89.507812 175.640625 88.957031 175.320312 C 88.386719 174.988281 87.957031 174.546875 87.617188 174.015625 C 87.109375 173.214844 86.816406 172.1875 86.660156 171.050781 C 86.5 169.914062 86.476562 168.671875 86.476562 167.453125 C 86.476562 166.972656 86.480469 166.496094 86.480469 166.03125 C 86.476562 164.867188 86.457031 163.773438 86.292969 162.835938 C 86.042969 161.445312 85.566406 159.957031 84.75 158.769531 C 84.339844 158.179688 83.84375 157.664062 83.238281 157.292969 C 82.636719 156.921875 81.921875 156.703125 81.132812 156.703125 C 80.628906 156.703125 80.089844 156.789062 79.527344 156.976562 C 78.539062 157.292969 77.75 157.882812 77.140625 158.609375 C 76.226562 159.707031 75.695312 161.109375 75.359375 162.527344 C 75.023438 163.949219 74.882812 165.394531 74.796875 166.578125 C 74.585938 169.375 74.496094 172.125 74.496094 174.902344 C 74.496094 175.324219 74.5 175.746094 74.503906 176.171875 C 74.527344 178.824219 74.574219 181.492188 74.574219 184.15625 C 74.574219 187.914062 74.480469 191.667969 74.109375 195.375 L 75.117188 195.476562 " fill-opacity="1" fill-rule="nonzero"/><path fill="#f4f4f4" d="M 80.710938 185.621094 C 80.710938 186.199219 80.246094 186.667969 79.667969 186.667969 L 69.554688 186.667969 C 68.980469 186.667969 68.515625 186.199219 68.515625 185.621094 L 68.515625 183.652344 C 68.515625 183.074219 68.980469 182.605469 69.554688 182.605469 L 79.667969 182.605469 C 80.246094 182.605469 80.710938 183.074219 80.710938 183.652344 L 80.710938 185.621094 " fill-opacity="1" fill-rule="nonzero"/><path fill="#e9e9e9" d="M 70.785156 183.921875 C 70.691406 183.921875 70.617188 184 70.617188 184.089844 C 70.617188 184.183594 70.691406 184.261719 70.785156 184.261719 C 70.878906 184.261719 70.957031 184.183594 70.957031 184.089844 C 70.957031 184 70.878906 183.921875 70.785156 183.921875 " fill-opacity="1" fill-rule="nonzero"/><path fill="#e9e9e9" d="M 70.785156 183.261719 C 70.691406 183.261719 70.617188 183.339844 70.617188 183.433594 C 70.617188 183.527344 70.691406 183.601562 70.785156 183.601562 C 70.878906 183.601562 70.957031 183.527344 70.957031 183.433594 C 70.957031 183.339844 70.878906 183.261719 70.785156 183.261719 " fill-opacity="1" fill-rule="nonzero"/><path fill="#e9e9e9" d="M 71.28125 183.691406 C 71.1875 183.691406 71.109375 183.769531 71.109375 183.863281 C 71.109375 183.957031 71.1875 184.03125 71.28125 184.03125 C 71.371094 184.03125 71.449219 183.957031 71.449219 183.863281 C 71.449219 183.769531 71.371094 183.691406 71.28125 183.691406 " fill-opacity="1" fill-rule="nonzero"/><path fill="#e9e9e9" d="M 70.785156 185.238281 C 70.691406 185.238281 70.617188 185.316406 70.617188 185.410156 C 70.617188 185.503906 70.691406 185.578125 70.785156 185.578125 C 70.878906 185.578125 70.957031 185.503906 70.957031 185.410156 C 70.957031 185.316406 70.878906 185.238281 70.785156 185.238281 " fill-opacity="1" fill-rule="nonzero"/><path fill="#e9e9e9" d="M 71.28125 184.351562 C 71.1875 184.351562 71.109375 184.429688 71.109375 184.523438 C 71.109375 184.613281 71.1875 184.691406 71.28125 184.691406 C 71.371094 184.691406 71.449219 184.613281 71.449219 184.523438 C 71.449219 184.429688 71.371094 184.351562 71.28125 184.351562 " fill-opacity="1" fill-rule="nonzero"/><path fill="#e9e9e9" d="M 70.785156 185.898438 C 70.691406 185.898438 70.617188 185.976562 70.617188 186.070312 C 70.617188 186.164062 70.691406 186.238281 70.785156 186.238281 C 70.878906 186.238281 70.957031 186.164062 70.957031 186.070312 C 70.957031 185.976562 70.878906 185.898438 70.785156 185.898438 " fill-opacity="1" fill-rule="nonzero"/><path fill="#e9e9e9" d="M 71.28125 185.671875 C 71.1875 185.671875 71.109375 185.746094 71.109375 185.839844 C 71.109375 185.933594 71.1875 186.007812 71.28125 186.007812 C 71.371094 186.007812 71.449219 185.933594 71.449219 185.839844 C 71.449219 185.746094 71.371094 185.671875 71.28125 185.671875 " fill-opacity="1" fill-rule="nonzero"/><path fill="#e9e9e9" d="M 71.28125 185.011719 C 71.1875 185.011719 71.109375 185.085938 71.109375 185.183594 C 71.109375 185.273438 71.1875 185.351562 71.28125 185.351562 C 71.371094 185.351562 71.449219 185.273438 71.449219 185.183594 C 71.449219 185.085938 71.371094 185.011719 71.28125 185.011719 " fill-opacity="1" fill-rule="nonzero"/><path fill="#e9e9e9" d="M 70.785156 184.582031 C 70.691406 184.582031 70.617188 184.65625 70.617188 184.75 C 70.617188 184.84375 70.691406 184.921875 70.785156 184.921875 C 70.878906 184.921875 70.957031 184.84375 70.957031 184.75 C 70.957031 184.65625 70.878906 184.582031 70.785156 184.582031 " fill-opacity="1" fill-rule="nonzero"/><path fill="#e9e9e9" d="M 69.765625 183.261719 C 69.671875 183.261719 69.59375 183.339844 69.59375 183.433594 C 69.59375 183.527344 69.671875 183.601562 69.765625 183.601562 C 69.859375 183.601562 69.933594 183.527344 69.933594 183.433594 C 69.933594 183.339844 69.859375 183.261719 69.765625 183.261719 " fill-opacity="1" fill-rule="nonzero"/><path fill="#e9e9e9" d="M 69.765625 183.921875 C 69.671875 183.921875 69.59375 184 69.59375 184.089844 C 69.59375 184.183594 69.671875 184.261719 69.765625 184.261719 C 69.859375 184.261719 69.933594 184.183594 69.933594 184.089844 C 69.933594 184 69.859375 183.921875 69.765625 183.921875 " fill-opacity="1" fill-rule="nonzero"/><path fill="#e9e9e9" d="M 70.257812 183.035156 C 70.164062 183.035156 70.089844 183.109375 70.089844 183.203125 C 70.089844 183.296875 70.164062 183.371094 70.257812 183.371094 C 70.347656 183.371094 70.425781 183.296875 70.425781 183.203125 C 70.425781 183.109375 70.347656 183.035156 70.257812 183.035156 " fill-opacity="1" fill-rule="nonzero"/><path fill="#e9e9e9" d="M 69.765625 184.582031 C 69.671875 184.582031 69.59375 184.65625 69.59375 184.75 C 69.59375 184.84375 69.671875 184.921875 69.765625 184.921875 C 69.859375 184.921875 69.933594 184.84375 69.933594 184.75 C 69.933594 184.65625 69.859375 184.582031 69.765625 184.582031 " fill-opacity="1" fill-rule="nonzero"/><path fill="#e9e9e9" d="M 70.257812 185.671875 C 70.164062 185.671875 70.089844 185.746094 70.089844 185.839844 C 70.089844 185.933594 70.164062 186.007812 70.257812 186.007812 C 70.347656 186.007812 70.425781 185.933594 70.425781 185.839844 C 70.425781 185.746094 70.347656 185.671875 70.257812 185.671875 " fill-opacity="1" fill-rule="nonzero"/><path fill="#e9e9e9" d="M 70.257812 183.691406 C 70.164062 183.691406 70.089844 183.769531 70.089844 183.863281 C 70.089844 183.957031 70.164062 184.03125 70.257812 184.03125 C 70.347656 184.03125 70.425781 183.957031 70.425781 183.863281 C 70.425781 183.769531 70.347656 183.691406 70.257812 183.691406 " fill-opacity="1" fill-rule="nonzero"/><path fill="#e9e9e9" d="M 70.257812 184.351562 C 70.164062 184.351562 70.089844 184.429688 70.089844 184.523438 C 70.089844 184.613281 70.164062 184.691406 70.257812 184.691406 C 70.347656 184.691406 70.425781 184.613281 70.425781 184.523438 C 70.425781 184.429688 70.347656 184.351562 70.257812 184.351562 " fill-opacity="1" fill-rule="nonzero"/><path fill="#e9e9e9" d="M 70.257812 185.011719 C 70.164062 185.011719 70.089844 185.085938 70.089844 185.183594 C 70.089844 185.273438 70.164062 185.351562 70.257812 185.351562 C 70.347656 185.351562 70.425781 185.273438 70.425781 185.183594 C 70.425781 185.085938 70.347656 185.011719 70.257812 185.011719 " fill-opacity="1" fill-rule="nonzero"/><path fill="#e9e9e9" d="M 72.832031 183.921875 C 72.738281 183.921875 72.664062 184 72.664062 184.089844 C 72.664062 184.183594 72.738281 184.261719 72.832031 184.261719 C 72.925781 184.261719 73 184.183594 73 184.089844 C 73 184 72.925781 183.921875 72.832031 183.921875 " fill-opacity="1" fill-rule="nonzero"/><path fill="#e9e9e9" d="M 72.832031 184.582031 C 72.738281 184.582031 72.664062 184.65625 72.664062 184.75 C 72.664062 184.84375 72.738281 184.921875 72.832031 184.921875 C 72.925781 184.921875 73 184.84375 73 184.75 C 73 184.65625 72.925781 184.582031 72.832031 184.582031 " fill-opacity="1" fill-rule="nonzero"/><path fill="#e9e9e9" d="M 72.832031 185.238281 C 72.738281 185.238281 72.664062 185.316406 72.664062 185.410156 C 72.664062 185.503906 72.738281 185.578125 72.832031 185.578125 C 72.925781 185.578125 73 185.503906 73 185.410156 C 73 185.316406 72.925781 185.238281 72.832031 185.238281 " fill-opacity="1" fill-rule="nonzero"/><path fill="#e9e9e9" d="M 72.832031 185.898438 C 72.738281 185.898438 72.664062 185.976562 72.664062 186.070312 C 72.664062 186.164062 72.738281 186.238281 72.832031 186.238281 C 72.925781 186.238281 73 186.164062 73 186.070312 C 73 185.976562 72.925781 185.898438 72.832031 185.898438 " fill-opacity="1" fill-rule="nonzero"/><path fill="#e9e9e9" d="M 72.300781 183.691406 C 72.210938 183.691406 72.132812 183.769531 72.132812 183.863281 C 72.132812 183.957031 72.210938 184.03125 72.300781 184.03125 C 72.394531 184.03125 72.46875 183.957031 72.46875 183.863281 C 72.46875 183.769531 72.394531 183.691406 72.300781 183.691406 " fill-opacity="1" fill-rule="nonzero"/><path fill="#e9e9e9" d="M 72.300781 183.035156 C 72.210938 183.035156 72.132812 183.109375 72.132812 183.203125 C 72.132812 183.296875 72.210938 183.371094 72.300781 183.371094 C 72.394531 183.371094 72.46875 183.296875 72.46875 183.203125 C 72.46875 183.109375 72.394531 183.035156 72.300781 183.035156 " fill-opacity="1" fill-rule="nonzero"/><path fill="#e9e9e9" d="M 73.324219 185.671875 C 73.230469 185.671875 73.15625 185.746094 73.15625 185.839844 C 73.15625 185.933594 73.230469 186.007812 73.324219 186.007812 C 73.417969 186.007812 73.492188 185.933594 73.492188 185.839844 C 73.492188 185.746094 73.417969 185.671875 73.324219 185.671875 " fill-opacity="1" fill-rule="nonzero"/><path fill="#e9e9e9" d="M 71.28125 183.035156 C 71.1875 183.035156 71.109375 183.109375 71.109375 183.203125 C 71.109375 183.296875 71.1875 183.371094 71.28125 183.371094 C 71.371094 183.371094 71.449219 183.296875 71.449219 183.203125 C 71.449219 183.109375 71.371094 183.035156 71.28125 183.035156 " fill-opacity="1" fill-rule="nonzero"/><path fill="#e9e9e9" d="M 69.765625 185.238281 C 69.671875 185.238281 69.59375 185.316406 69.59375 185.410156 C 69.59375 185.503906 69.671875 185.578125 69.765625 185.578125 C 69.859375 185.578125 69.933594 185.503906 69.933594 185.410156 C 69.933594 185.316406 69.859375 185.238281 69.765625 185.238281 " fill-opacity="1" fill-rule="nonzero"/><path fill="#e9e9e9" d="M 72.832031 183.261719 C 72.738281 183.261719 72.664062 183.339844 72.664062 183.433594 C 72.664062 183.527344 72.738281 183.601562 72.832031 183.601562 C 72.925781 183.601562 73 183.527344 73 183.433594 C 73 183.339844 72.925781 183.261719 72.832031 183.261719 " fill-opacity="1" fill-rule="nonzero"/><path fill="#e9e9e9" d="M 71.808594 183.921875 C 71.71875 183.921875 71.640625 184 71.640625 184.089844 C 71.640625 184.183594 71.71875 184.261719 71.808594 184.261719 C 71.902344 184.261719 71.976562 184.183594 71.976562 184.089844 C 71.976562 184 71.902344 183.921875 71.808594 183.921875 " fill-opacity="1" fill-rule="nonzero"/><path fill="#e9e9e9" d="M 71.808594 184.582031 C 71.71875 184.582031 71.640625 184.65625 71.640625 184.75 C 71.640625 184.84375 71.71875 184.921875 71.808594 184.921875 C 71.902344 184.921875 71.976562 184.84375 71.976562 184.75 C 71.976562 184.65625 71.902344 184.582031 71.808594 184.582031 " fill-opacity="1" fill-rule="nonzero"/><path fill="#e9e9e9" d="M 72.300781 184.351562 C 72.210938 184.351562 72.132812 184.429688 72.132812 184.523438 C 72.132812 184.613281 72.210938 184.691406 72.300781 184.691406 C 72.394531 184.691406 72.46875 184.613281 72.46875 184.523438 C 72.46875 184.429688 72.394531 184.351562 72.300781 184.351562 " fill-opacity="1" fill-rule="nonzero"/><path fill="#e9e9e9" d="M 71.808594 185.898438 C 71.71875 185.898438 71.640625 185.976562 71.640625 186.070312 C 71.640625 186.164062 71.71875 186.238281 71.808594 186.238281 C 71.902344 186.238281 71.976562 186.164062 71.976562 186.070312 C 71.976562 185.976562 71.902344 185.898438 71.808594 185.898438 " fill-opacity="1" fill-rule="nonzero"/><path fill="#e9e9e9" d="M 71.808594 185.238281 C 71.71875 185.238281 71.640625 185.316406 71.640625 185.410156 C 71.640625 185.503906 71.71875 185.578125 71.808594 185.578125 C 71.902344 185.578125 71.976562 185.503906 71.976562 185.410156 C 71.976562 185.316406 71.902344 185.238281 71.808594 185.238281 " fill-opacity="1" fill-rule="nonzero"/><path fill="#e9e9e9" d="M 72.300781 185.011719 C 72.210938 185.011719 72.132812 185.085938 72.132812 185.183594 C 72.132812 185.273438 72.210938 185.351562 72.300781 185.351562 C 72.394531 185.351562 72.46875 185.273438 72.46875 185.183594 C 72.46875 185.085938 72.394531 185.011719 72.300781 185.011719 " fill-opacity="1" fill-rule="nonzero"/><path fill="#e9e9e9" d="M 71.808594 183.261719 C 71.71875 183.261719 71.640625 183.339844 71.640625 183.433594 C 71.640625 183.527344 71.71875 183.601562 71.808594 183.601562 C 71.902344 183.601562 71.976562 183.527344 71.976562 183.433594 C 71.976562 183.339844 71.902344 183.261719 71.808594 183.261719 " fill-opacity="1" fill-rule="nonzero"/><path fill="#e9e9e9" d="M 72.300781 185.671875 C 72.210938 185.671875 72.132812 185.746094 72.132812 185.839844 C 72.132812 185.933594 72.210938 186.007812 72.300781 186.007812 C 72.394531 186.007812 72.46875 185.933594 72.46875 185.839844 C 72.46875 185.746094 72.394531 185.671875 72.300781 185.671875 " fill-opacity="1" fill-rule="nonzero"/><path fill="#e9e9e9" d="M 69.769531 182.605469 L 69.757812 182.605469 C 69.667969 182.605469 69.59375 182.679688 69.59375 182.773438 C 69.59375 182.867188 69.671875 182.941406 69.765625 182.941406 C 69.859375 182.941406 69.933594 182.867188 69.933594 182.773438 C 69.933594 182.679688 69.859375 182.605469 69.769531 182.605469 " fill-opacity="1" fill-rule="nonzero"/><path fill="#e9e9e9" d="M 68.894531 182.84375 C 68.863281 182.867188 68.832031 182.898438 68.800781 182.929688 C 68.84375 182.914062 68.875 182.882812 68.894531 182.84375 " fill-opacity="1" fill-rule="nonzero"/><path fill="#e9e9e9" d="M 73.324219 185.011719 C 73.230469 185.011719 73.15625 185.085938 73.15625 185.183594 C 73.15625 185.273438 73.230469 185.351562 73.324219 185.351562 C 73.417969 185.351562 73.492188 185.273438 73.492188 185.183594 C 73.492188 185.085938 73.417969 185.011719 73.324219 185.011719 " fill-opacity="1" fill-rule="nonzero"/><path fill="#e9e9e9" d="M 70.792969 182.605469 L 70.78125 182.605469 C 70.691406 182.605469 70.617188 182.679688 70.617188 182.773438 C 70.617188 182.867188 70.691406 182.941406 70.785156 182.941406 C 70.878906 182.941406 70.957031 182.867188 70.957031 182.773438 C 70.957031 182.679688 70.882812 182.605469 70.792969 182.605469 " fill-opacity="1" fill-rule="nonzero"/><path fill="#e9e9e9" d="M 72.835938 182.605469 L 72.828125 182.605469 C 72.738281 182.605469 72.664062 182.679688 72.664062 182.773438 C 72.664062 182.867188 72.738281 182.941406 72.832031 182.941406 C 72.925781 182.941406 73 182.867188 73 182.773438 C 73 182.679688 72.925781 182.605469 72.835938 182.605469 " fill-opacity="1" fill-rule="nonzero"/><path fill="#e9e9e9" d="M 71.8125 182.605469 L 71.804688 182.605469 C 71.714844 182.605469 71.640625 182.679688 71.640625 182.773438 C 71.640625 182.867188 71.71875 182.941406 71.808594 182.941406 C 71.902344 182.941406 71.976562 182.867188 71.976562 182.773438 C 71.976562 182.679688 71.90625 182.605469 71.8125 182.605469 " fill-opacity="1" fill-rule="nonzero"/><path fill="#e9e9e9" d="M 68.742188 185.898438 C 68.671875 185.898438 68.613281 185.941406 68.585938 186.003906 C 68.621094 186.085938 68.664062 186.164062 68.714844 186.238281 L 68.742188 186.238281 C 68.835938 186.238281 68.910156 186.164062 68.910156 186.070312 C 68.910156 185.976562 68.835938 185.898438 68.742188 185.898438 " fill-opacity="1" fill-rule="nonzero"/><path fill="#e9e9e9" d="M 70.257812 186.332031 C 70.164062 186.332031 70.089844 186.40625 70.089844 186.5 C 70.089844 186.59375 70.164062 186.667969 70.253906 186.667969 L 70.261719 186.667969 C 70.351562 186.667969 70.425781 186.59375 70.425781 186.5 C 70.425781 186.40625 70.347656 186.332031 70.257812 186.332031 " fill-opacity="1" fill-rule="nonzero"/><path fill="#e9e9e9" d="M 71.28125 186.332031 C 71.1875 186.332031 71.109375 186.40625 71.109375 186.5 C 71.109375 186.59375 71.183594 186.667969 71.277344 186.667969 L 71.285156 186.667969 C 71.375 186.667969 71.449219 186.59375 71.449219 186.5 C 71.449219 186.40625 71.371094 186.332031 71.28125 186.332031 " fill-opacity="1" fill-rule="nonzero"/><path fill="#e9e9e9" d="M 69.234375 186.332031 C 69.140625 186.332031 69.066406 186.40625 69.066406 186.5 L 69.074219 186.550781 C 69.152344 186.589844 69.234375 186.621094 69.324219 186.644531 C 69.371094 186.613281 69.402344 186.558594 69.402344 186.5 C 69.402344 186.40625 69.328125 186.332031 69.234375 186.332031 " fill-opacity="1" fill-rule="nonzero"/><path fill="#e9e9e9" d="M 77.949219 182.605469 L 77.941406 182.605469 C 77.851562 182.605469 77.777344 182.679688 77.777344 182.773438 C 77.777344 182.867188 77.851562 182.941406 77.945312 182.941406 C 78.039062 182.941406 78.113281 182.867188 78.113281 182.773438 C 78.113281 182.679688 78.039062 182.605469 77.949219 182.605469 " fill-opacity="1" fill-rule="nonzero"/><path fill="#e9e9e9" d="M 78.972656 182.605469 L 78.964844 182.605469 C 78.875 182.605469 78.800781 182.679688 78.800781 182.773438 C 78.800781 182.867188 78.875 182.941406 78.96875 182.941406 C 79.0625 182.941406 79.136719 182.867188 79.136719 182.773438 C 79.136719 182.679688 79.0625 182.605469 78.972656 182.605469 " fill-opacity="1" fill-rule="nonzero"/><path fill="#e9e9e9" d="M 72.300781 186.332031 C 72.210938 186.332031 72.132812 186.40625 72.132812 186.5 C 72.132812 186.59375 72.207031 186.667969 72.296875 186.667969 L 72.304688 186.667969 C 72.398438 186.667969 72.46875 186.59375 72.46875 186.5 C 72.46875 186.40625 72.394531 186.332031 72.300781 186.332031 " fill-opacity="1" fill-rule="nonzero"/><path fill="#e9e9e9" d="M 73.859375 182.605469 L 73.851562 182.605469 C 73.757812 182.605469 73.6875 182.679688 73.6875 182.773438 C 73.6875 182.867188 73.761719 182.941406 73.855469 182.941406 C 73.949219 182.941406 74.023438 182.867188 74.023438 182.773438 C 74.023438 182.679688 73.949219 182.605469 73.859375 182.605469 " fill-opacity="1" fill-rule="nonzero"/><path fill="#e9e9e9" d="M 80.484375 183.371094 C 80.554688 183.371094 80.613281 183.328125 80.640625 183.269531 C 80.605469 183.1875 80.5625 183.109375 80.511719 183.035156 L 80.484375 183.035156 C 80.390625 183.035156 80.316406 183.109375 80.316406 183.203125 C 80.316406 183.296875 80.390625 183.371094 80.484375 183.371094 " fill-opacity="1" fill-rule="nonzero"/><path fill="#e9e9e9" d="M 79.898438 182.628906 C 79.855469 182.660156 79.824219 182.710938 79.824219 182.773438 C 79.824219 182.867188 79.898438 182.941406 79.992188 182.941406 C 80.085938 182.941406 80.160156 182.867188 80.160156 182.773438 L 80.152344 182.722656 C 80.074219 182.683594 79.988281 182.648438 79.898438 182.628906 " fill-opacity="1" fill-rule="nonzero"/><path fill="#e9e9e9" d="M 74.882812 182.605469 L 74.875 182.605469 C 74.78125 182.605469 74.707031 182.679688 74.707031 182.773438 C 74.707031 182.867188 74.785156 182.941406 74.878906 182.941406 C 74.972656 182.941406 75.046875 182.867188 75.046875 182.773438 C 75.046875 182.679688 74.972656 182.605469 74.882812 182.605469 " fill-opacity="1" fill-rule="nonzero"/><path fill="#e9e9e9" d="M 75.90625 182.605469 L 75.894531 182.605469 C 75.804688 182.605469 75.734375 182.679688 75.734375 182.773438 C 75.734375 182.867188 75.808594 182.941406 75.898438 182.941406 C 75.992188 182.941406 76.070312 182.867188 76.070312 182.773438 C 76.070312 182.679688 75.996094 182.605469 75.90625 182.605469 " fill-opacity="1" fill-rule="nonzero"/><path fill="#e9e9e9" d="M 76.925781 182.605469 L 76.917969 182.605469 C 76.828125 182.605469 76.753906 182.679688 76.753906 182.773438 C 76.753906 182.867188 76.832031 182.941406 76.921875 182.941406 C 77.015625 182.941406 77.089844 182.867188 77.089844 182.773438 C 77.089844 182.679688 77.019531 182.605469 76.925781 182.605469 " fill-opacity="1" fill-rule="nonzero"/><path fill="#e9e9e9" d="M 69.234375 183.035156 C 69.140625 183.035156 69.066406 183.109375 69.066406 183.203125 C 69.066406 183.296875 69.140625 183.371094 69.234375 183.371094 C 69.328125 183.371094 69.402344 183.296875 69.402344 183.203125 C 69.402344 183.109375 69.328125 183.035156 69.234375 183.035156 " fill-opacity="1" fill-rule="nonzero"/><path fill="#e9e9e9" d="M 69.234375 185.671875 C 69.140625 185.671875 69.066406 185.746094 69.066406 185.839844 C 69.066406 185.933594 69.140625 186.007812 69.234375 186.007812 C 69.328125 186.007812 69.402344 185.933594 69.402344 185.839844 C 69.402344 185.746094 69.328125 185.671875 69.234375 185.671875 " fill-opacity="1" fill-rule="nonzero"/><path fill="#e9e9e9" d="M 69.234375 185.011719 C 69.140625 185.011719 69.066406 185.085938 69.066406 185.183594 C 69.066406 185.273438 69.140625 185.351562 69.234375 185.351562 C 69.328125 185.351562 69.402344 185.273438 69.402344 185.183594 C 69.402344 185.085938 69.328125 185.011719 69.234375 185.011719 " fill-opacity="1" fill-rule="nonzero"/><path fill="#e9e9e9" d="M 68.742188 183.261719 C 68.648438 183.261719 68.574219 183.339844 68.574219 183.433594 C 68.574219 183.527344 68.648438 183.601562 68.742188 183.601562 C 68.835938 183.601562 68.910156 183.527344 68.910156 183.433594 C 68.910156 183.339844 68.835938 183.261719 68.742188 183.261719 " fill-opacity="1" fill-rule="nonzero"/><path fill="#e9e9e9" d="M 68.742188 183.921875 C 68.648438 183.921875 68.574219 184 68.574219 184.089844 C 68.574219 184.183594 68.648438 184.261719 68.742188 184.261719 C 68.835938 184.261719 68.910156 184.183594 68.910156 184.089844 C 68.910156 184 68.835938 183.921875 68.742188 183.921875 " fill-opacity="1" fill-rule="nonzero"/><path fill="#e9e9e9" d="M 73.324219 186.332031 C 73.230469 186.332031 73.15625 186.40625 73.15625 186.5 C 73.15625 186.59375 73.230469 186.667969 73.320312 186.667969 L 73.328125 186.667969 C 73.421875 186.667969 73.492188 186.59375 73.492188 186.5 C 73.492188 186.40625 73.417969 186.332031 73.324219 186.332031 " fill-opacity="1" fill-rule="nonzero"/><path fill="#e9e9e9" d="M 69.765625 185.898438 C 69.671875 185.898438 69.59375 185.976562 69.59375 186.070312 C 69.59375 186.164062 69.671875 186.238281 69.765625 186.238281 C 69.859375 186.238281 69.933594 186.164062 69.933594 186.070312 C 69.933594 185.976562 69.859375 185.898438 69.765625 185.898438 " fill-opacity="1" fill-rule="nonzero"/><path fill="#e9e9e9" d="M 68.742188 184.582031 C 68.648438 184.582031 68.574219 184.65625 68.574219 184.75 C 68.574219 184.84375 68.648438 184.921875 68.742188 184.921875 C 68.835938 184.921875 68.910156 184.84375 68.910156 184.75 C 68.910156 184.65625 68.835938 184.582031 68.742188 184.582031 " fill-opacity="1" fill-rule="nonzero"/><path fill="#e9e9e9" d="M 69.234375 184.351562 C 69.140625 184.351562 69.066406 184.429688 69.066406 184.523438 C 69.066406 184.613281 69.140625 184.691406 69.234375 184.691406 C 69.328125 184.691406 69.402344 184.613281 69.402344 184.523438 C 69.402344 184.429688 69.328125 184.351562 69.234375 184.351562 " fill-opacity="1" fill-rule="nonzero"/><path fill="#e9e9e9" d="M 69.234375 183.691406 C 69.140625 183.691406 69.066406 183.769531 69.066406 183.863281 C 69.066406 183.957031 69.140625 184.03125 69.234375 184.03125 C 69.328125 184.03125 69.402344 183.957031 69.402344 183.863281 C 69.402344 183.769531 69.328125 183.691406 69.234375 183.691406 " fill-opacity="1" fill-rule="nonzero"/><path fill="#e9e9e9" d="M 77.417969 186.332031 C 77.324219 186.332031 77.246094 186.40625 77.246094 186.5 C 77.246094 186.59375 77.320312 186.667969 77.410156 186.667969 L 77.417969 186.667969 C 77.511719 186.667969 77.582031 186.59375 77.582031 186.5 C 77.582031 186.40625 77.507812 186.332031 77.417969 186.332031 " fill-opacity="1" fill-rule="nonzero"/><path fill="#e9e9e9" d="M 68.742188 185.238281 C 68.648438 185.238281 68.574219 185.316406 68.574219 185.410156 C 68.574219 185.503906 68.648438 185.578125 68.742188 185.578125 C 68.835938 185.578125 68.910156 185.503906 68.910156 185.410156 C 68.910156 185.316406 68.835938 185.238281 68.742188 185.238281 " fill-opacity="1" fill-rule="nonzero"/><path fill="#e9e9e9" d="M 76.394531 186.332031 C 76.300781 186.332031 76.222656 186.40625 76.222656 186.5 C 76.222656 186.59375 76.296875 186.667969 76.390625 186.667969 L 76.398438 186.667969 C 76.488281 186.667969 76.5625 186.59375 76.5625 186.5 C 76.5625 186.40625 76.484375 186.332031 76.394531 186.332031 " fill-opacity="1" fill-rule="nonzero"/><path fill="#e9e9e9" d="M 74.347656 186.332031 C 74.253906 186.332031 74.179688 186.40625 74.179688 186.5 C 74.179688 186.59375 74.253906 186.667969 74.34375 186.667969 L 74.351562 186.667969 C 74.441406 186.667969 74.515625 186.59375 74.515625 186.5 C 74.515625 186.40625 74.441406 186.332031 74.347656 186.332031 " fill-opacity="1" fill-rule="nonzero"/><path fill="#e9e9e9" d="M 75.371094 186.332031 C 75.277344 186.332031 75.203125 186.40625 75.203125 186.5 C 75.203125 186.59375 75.277344 186.667969 75.367188 186.667969 L 75.375 186.667969 C 75.464844 186.667969 75.539062 186.59375 75.539062 186.5 C 75.539062 186.40625 75.460938 186.332031 75.371094 186.332031 " fill-opacity="1" fill-rule="nonzero"/><path fill="#e9e9e9" d="M 80.328125 186.429688 C 80.363281 186.402344 80.394531 186.375 80.425781 186.339844 C 80.382812 186.355469 80.347656 186.390625 80.328125 186.429688 " fill-opacity="1" fill-rule="nonzero"/><path fill="#e9e9e9" d="M 79.460938 186.332031 C 79.367188 186.332031 79.292969 186.40625 79.292969 186.5 C 79.292969 186.59375 79.367188 186.667969 79.457031 186.667969 L 79.464844 186.667969 C 79.554688 186.667969 79.628906 186.59375 79.628906 186.5 C 79.628906 186.40625 79.554688 186.332031 79.460938 186.332031 " fill-opacity="1" fill-rule="nonzero"/><path fill="#e9e9e9" d="M 78.4375 186.332031 C 78.34375 186.332031 78.269531 186.40625 78.269531 186.5 C 78.269531 186.59375 78.34375 186.667969 78.433594 186.667969 L 78.441406 186.667969 C 78.535156 186.667969 78.609375 186.59375 78.609375 186.5 C 78.609375 186.40625 78.53125 186.332031 78.4375 186.332031 " fill-opacity="1" fill-rule="nonzero"/><path fill="#e9e9e9" d="M 73.324219 184.351562 C 73.230469 184.351562 73.15625 184.429688 73.15625 184.523438 C 73.15625 184.613281 73.230469 184.691406 73.324219 184.691406 C 73.417969 184.691406 73.492188 184.613281 73.492188 184.523438 C 73.492188 184.429688 73.417969 184.351562 73.324219 184.351562 " fill-opacity="1" fill-rule="nonzero"/><path fill="#e9e9e9" d="M 73.324219 183.691406 C 73.230469 183.691406 73.15625 183.769531 73.15625 183.863281 C 73.15625 183.957031 73.230469 184.03125 73.324219 184.03125 C 73.417969 184.03125 73.492188 183.957031 73.492188 183.863281 C 73.492188 183.769531 73.417969 183.691406 73.324219 183.691406 " fill-opacity="1" fill-rule="nonzero"/><path fill="#e9e9e9" d="M 78.4375 184.351562 C 78.34375 184.351562 78.269531 184.429688 78.269531 184.523438 C 78.269531 184.613281 78.34375 184.691406 78.4375 184.691406 C 78.53125 184.691406 78.609375 184.613281 78.609375 184.523438 C 78.609375 184.429688 78.53125 184.351562 78.4375 184.351562 " fill-opacity="1" fill-rule="nonzero"/><path fill="#e9e9e9" d="M 78.4375 185.671875 C 78.34375 185.671875 78.269531 185.746094 78.269531 185.839844 C 78.269531 185.933594 78.34375 186.007812 78.4375 186.007812 C 78.53125 186.007812 78.609375 185.933594 78.609375 185.839844 C 78.609375 185.746094 78.53125 185.671875 78.4375 185.671875 " fill-opacity="1" fill-rule="nonzero"/><path fill="#e9e9e9" d="M 77.945312 183.261719 C 77.851562 183.261719 77.777344 183.339844 77.777344 183.433594 C 77.777344 183.527344 77.851562 183.601562 77.945312 183.601562 C 78.039062 183.601562 78.113281 183.527344 78.113281 183.433594 C 78.113281 183.339844 78.039062 183.261719 77.945312 183.261719 " fill-opacity="1" fill-rule="nonzero"/><path fill="#e9e9e9" d="M 78.96875 185.898438 C 78.875 185.898438 78.800781 185.976562 78.800781 186.070312 C 78.800781 186.164062 78.875 186.238281 78.96875 186.238281 C 79.0625 186.238281 79.136719 186.164062 79.136719 186.070312 C 79.136719 185.976562 79.0625 185.898438 78.96875 185.898438 " fill-opacity="1" fill-rule="nonzero"/><path fill="#e9e9e9" d="M 78.4375 183.691406 C 78.34375 183.691406 78.269531 183.769531 78.269531 183.863281 C 78.269531 183.957031 78.34375 184.03125 78.4375 184.03125 C 78.53125 184.03125 78.609375 183.957031 78.609375 183.863281 C 78.609375 183.769531 78.53125 183.691406 78.4375 183.691406 " fill-opacity="1" fill-rule="nonzero"/><path fill="#e9e9e9" d="M 78.96875 185.238281 C 78.875 185.238281 78.800781 185.316406 78.800781 185.410156 C 78.800781 185.503906 78.875 185.578125 78.96875 185.578125 C 79.0625 185.578125 79.136719 185.503906 79.136719 185.410156 C 79.136719 185.316406 79.0625 185.238281 78.96875 185.238281 " fill-opacity="1" fill-rule="nonzero"/><path fill="#e9e9e9" d="M 78.4375 183.035156 C 78.34375 183.035156 78.269531 183.109375 78.269531 183.203125 C 78.269531 183.296875 78.34375 183.371094 78.4375 183.371094 C 78.53125 183.371094 78.609375 183.296875 78.609375 183.203125 C 78.609375 183.109375 78.53125 183.035156 78.4375 183.035156 " fill-opacity="1" fill-rule="nonzero"/><path fill="#e9e9e9" d="M 77.945312 183.921875 C 77.851562 183.921875 77.777344 184 77.777344 184.089844 C 77.777344 184.183594 77.851562 184.261719 77.945312 184.261719 C 78.039062 184.261719 78.113281 184.183594 78.113281 184.089844 C 78.113281 184 78.039062 183.921875 77.945312 183.921875 " fill-opacity="1" fill-rule="nonzero"/><path fill="#e9e9e9" d="M 77.945312 184.582031 C 77.851562 184.582031 77.777344 184.65625 77.777344 184.75 C 77.777344 184.84375 77.851562 184.921875 77.945312 184.921875 C 78.039062 184.921875 78.113281 184.84375 78.113281 184.75 C 78.113281 184.65625 78.039062 184.582031 77.945312 184.582031 " fill-opacity="1" fill-rule="nonzero"/><path fill="#e9e9e9" d="M 77.417969 184.351562 C 77.324219 184.351562 77.246094 184.429688 77.246094 184.523438 C 77.246094 184.613281 77.324219 184.691406 77.417969 184.691406 C 77.507812 184.691406 77.582031 184.613281 77.582031 184.523438 C 77.582031 184.429688 77.507812 184.351562 77.417969 184.351562 " fill-opacity="1" fill-rule="nonzero"/><path fill="#e9e9e9" d="M 77.417969 185.011719 C 77.324219 185.011719 77.246094 185.085938 77.246094 185.183594 C 77.246094 185.273438 77.324219 185.351562 77.417969 185.351562 C 77.507812 185.351562 77.582031 185.273438 77.582031 185.183594 C 77.582031 185.085938 77.507812 185.011719 77.417969 185.011719 " fill-opacity="1" fill-rule="nonzero"/><path fill="#e9e9e9" d="M 77.417969 185.671875 C 77.324219 185.671875 77.246094 185.746094 77.246094 185.839844 C 77.246094 185.933594 77.324219 186.007812 77.417969 186.007812 C 77.507812 186.007812 77.582031 185.933594 77.582031 185.839844 C 77.582031 185.746094 77.507812 185.671875 77.417969 185.671875 " fill-opacity="1" fill-rule="nonzero"/><path fill="#e9e9e9" d="M 77.417969 183.691406 C 77.324219 183.691406 77.246094 183.769531 77.246094 183.863281 C 77.246094 183.957031 77.324219 184.03125 77.417969 184.03125 C 77.507812 184.03125 77.582031 183.957031 77.582031 183.863281 C 77.582031 183.769531 77.507812 183.691406 77.417969 183.691406 " fill-opacity="1" fill-rule="nonzero"/><path fill="#e9e9e9" d="M 77.945312 185.238281 C 77.851562 185.238281 77.777344 185.316406 77.777344 185.410156 C 77.777344 185.503906 77.851562 185.578125 77.945312 185.578125 C 78.039062 185.578125 78.113281 185.503906 78.113281 185.410156 C 78.113281 185.316406 78.039062 185.238281 77.945312 185.238281 " fill-opacity="1" fill-rule="nonzero"/><path fill="#e9e9e9" d="M 77.417969 183.035156 C 77.324219 183.035156 77.246094 183.109375 77.246094 183.203125 C 77.246094 183.296875 77.324219 183.371094 77.417969 183.371094 C 77.507812 183.371094 77.582031 183.296875 77.582031 183.203125 C 77.582031 183.109375 77.507812 183.035156 77.417969 183.035156 " fill-opacity="1" fill-rule="nonzero"/><path fill="#e9e9e9" d="M 77.945312 185.898438 C 77.851562 185.898438 77.777344 185.976562 77.777344 186.070312 C 77.777344 186.164062 77.851562 186.238281 77.945312 186.238281 C 78.039062 186.238281 78.113281 186.164062 78.113281 186.070312 C 78.113281 185.976562 78.039062 185.898438 77.945312 185.898438 " fill-opacity="1" fill-rule="nonzero"/><path fill="#e9e9e9" d="M 80.484375 185.671875 C 80.390625 185.671875 80.316406 185.746094 80.316406 185.839844 C 80.316406 185.933594 80.390625 186.007812 80.484375 186.007812 C 80.578125 186.007812 80.652344 185.933594 80.652344 185.839844 C 80.652344 185.746094 80.578125 185.671875 80.484375 185.671875 " fill-opacity="1" fill-rule="nonzero"/><path fill="#e9e9e9" d="M 79.992188 183.921875 C 79.898438 183.921875 79.824219 184 79.824219 184.089844 C 79.824219 184.183594 79.898438 184.261719 79.992188 184.261719 C 80.085938 184.261719 80.160156 184.183594 80.160156 184.089844 C 80.160156 184 80.085938 183.921875 79.992188 183.921875 " fill-opacity="1" fill-rule="nonzero"/><path fill="#e9e9e9" d="M 79.992188 183.261719 C 79.898438 183.261719 79.824219 183.339844 79.824219 183.433594 C 79.824219 183.527344 79.898438 183.601562 79.992188 183.601562 C 80.085938 183.601562 80.160156 183.527344 80.160156 183.433594 C 80.160156 183.339844 80.085938 183.261719 79.992188 183.261719 " fill-opacity="1" fill-rule="nonzero"/><path fill="#e9e9e9" d="M 79.992188 184.582031 C 79.898438 184.582031 79.824219 184.65625 79.824219 184.75 C 79.824219 184.84375 79.898438 184.921875 79.992188 184.921875 C 80.085938 184.921875 80.160156 184.84375 80.160156 184.75 C 80.160156 184.65625 80.085938 184.582031 79.992188 184.582031 " fill-opacity="1" fill-rule="nonzero"/><path fill="#e9e9e9" d="M 76.921875 183.261719 C 76.832031 183.261719 76.753906 183.339844 76.753906 183.433594 C 76.753906 183.527344 76.832031 183.601562 76.921875 183.601562 C 77.015625 183.601562 77.089844 183.527344 77.089844 183.433594 C 77.089844 183.339844 77.015625 183.261719 76.921875 183.261719 " fill-opacity="1" fill-rule="nonzero"/><path fill="#e9e9e9" d="M 80.484375 184.351562 C 80.390625 184.351562 80.316406 184.429688 80.316406 184.523438 C 80.316406 184.613281 80.390625 184.691406 80.484375 184.691406 C 80.578125 184.691406 80.652344 184.613281 80.652344 184.523438 C 80.652344 184.429688 80.578125 184.351562 80.484375 184.351562 " fill-opacity="1" fill-rule="nonzero"/><path fill="#e9e9e9" d="M 78.96875 184.582031 C 78.875 184.582031 78.800781 184.65625 78.800781 184.75 C 78.800781 184.84375 78.875 184.921875 78.96875 184.921875 C 79.0625 184.921875 79.136719 184.84375 79.136719 184.75 C 79.136719 184.65625 79.0625 184.582031 78.96875 184.582031 " fill-opacity="1" fill-rule="nonzero"/><path fill="#e9e9e9" d="M 80.484375 184.03125 C 80.578125 184.03125 80.652344 183.957031 80.652344 183.863281 C 80.652344 183.769531 80.578125 183.691406 80.484375 183.691406 C 80.390625 183.691406 80.316406 183.769531 80.316406 183.863281 C 80.316406 183.957031 80.390625 184.03125 80.484375 184.03125 " fill-opacity="1" fill-rule="nonzero"/><path fill="#e9e9e9" d="M 79.992188 185.238281 C 79.898438 185.238281 79.824219 185.316406 79.824219 185.410156 C 79.824219 185.503906 79.898438 185.578125 79.992188 185.578125 C 80.085938 185.578125 80.160156 185.503906 80.160156 185.410156 C 80.160156 185.316406 80.085938 185.238281 79.992188 185.238281 " fill-opacity="1" fill-rule="nonzero"/><path fill="#e9e9e9" d="M 80.484375 185.011719 C 80.390625 185.011719 80.316406 185.085938 80.316406 185.183594 C 80.316406 185.273438 80.390625 185.351562 80.484375 185.351562 C 80.578125 185.351562 80.652344 185.273438 80.652344 185.183594 C 80.652344 185.085938 80.578125 185.011719 80.484375 185.011719 " fill-opacity="1" fill-rule="nonzero"/><path fill="#e9e9e9" d="M 79.992188 185.898438 C 79.898438 185.898438 79.824219 185.976562 79.824219 186.070312 C 79.824219 186.164062 79.898438 186.238281 79.992188 186.238281 C 80.085938 186.238281 80.160156 186.164062 80.160156 186.070312 C 80.160156 185.976562 80.085938 185.898438 79.992188 185.898438 " fill-opacity="1" fill-rule="nonzero"/><path fill="#e9e9e9" d="M 79.460938 185.011719 C 79.367188 185.011719 79.292969 185.085938 79.292969 185.183594 C 79.292969 185.273438 79.367188 185.351562 79.460938 185.351562 C 79.554688 185.351562 79.628906 185.273438 79.628906 185.183594 C 79.628906 185.085938 79.554688 185.011719 79.460938 185.011719 " fill-opacity="1" fill-rule="nonzero"/><path fill="#e9e9e9" d="M 79.460938 185.671875 C 79.367188 185.671875 79.292969 185.746094 79.292969 185.839844 C 79.292969 185.933594 79.367188 186.007812 79.460938 186.007812 C 79.554688 186.007812 79.628906 185.933594 79.628906 185.839844 C 79.628906 185.746094 79.554688 185.671875 79.460938 185.671875 " fill-opacity="1" fill-rule="nonzero"/><path fill="#e9e9e9" d="M 78.96875 183.921875 C 78.875 183.921875 78.800781 184 78.800781 184.089844 C 78.800781 184.183594 78.875 184.261719 78.96875 184.261719 C 79.0625 184.261719 79.136719 184.183594 79.136719 184.089844 C 79.136719 184 79.0625 183.921875 78.96875 183.921875 " fill-opacity="1" fill-rule="nonzero"/><path fill="#e9e9e9" d="M 78.96875 183.261719 C 78.875 183.261719 78.800781 183.339844 78.800781 183.433594 C 78.800781 183.527344 78.875 183.601562 78.96875 183.601562 C 79.0625 183.601562 79.136719 183.527344 79.136719 183.433594 C 79.136719 183.339844 79.0625 183.261719 78.96875 183.261719 " fill-opacity="1" fill-rule="nonzero"/><path fill="#e9e9e9" d="M 79.460938 183.035156 C 79.367188 183.035156 79.292969 183.109375 79.292969 183.203125 C 79.292969 183.296875 79.367188 183.371094 79.460938 183.371094 C 79.554688 183.371094 79.628906 183.296875 79.628906 183.203125 C 79.628906 183.109375 79.554688 183.035156 79.460938 183.035156 " fill-opacity="1" fill-rule="nonzero"/><path fill="#e9e9e9" d="M 79.460938 183.691406 C 79.367188 183.691406 79.292969 183.769531 79.292969 183.863281 C 79.292969 183.957031 79.367188 184.03125 79.460938 184.03125 C 79.554688 184.03125 79.628906 183.957031 79.628906 183.863281 C 79.628906 183.769531 79.554688 183.691406 79.460938 183.691406 " fill-opacity="1" fill-rule="nonzero"/><path fill="#e9e9e9" d="M 79.460938 184.351562 C 79.367188 184.351562 79.292969 184.429688 79.292969 184.523438 C 79.292969 184.613281 79.367188 184.691406 79.460938 184.691406 C 79.554688 184.691406 79.628906 184.613281 79.628906 184.523438 C 79.628906 184.429688 79.554688 184.351562 79.460938 184.351562 " fill-opacity="1" fill-rule="nonzero"/><path fill="#e9e9e9" d="M 78.4375 185.011719 C 78.34375 185.011719 78.269531 185.085938 78.269531 185.183594 C 78.269531 185.273438 78.34375 185.351562 78.4375 185.351562 C 78.53125 185.351562 78.609375 185.273438 78.609375 185.183594 C 78.609375 185.085938 78.53125 185.011719 78.4375 185.011719 " fill-opacity="1" fill-rule="nonzero"/><path fill="#e9e9e9" d="M 74.347656 183.035156 C 74.253906 183.035156 74.179688 183.109375 74.179688 183.203125 C 74.179688 183.296875 74.253906 183.371094 74.347656 183.371094 C 74.441406 183.371094 74.515625 183.296875 74.515625 183.203125 C 74.515625 183.109375 74.441406 183.035156 74.347656 183.035156 " fill-opacity="1" fill-rule="nonzero"/><path fill="#e9e9e9" d="M 75.371094 185.671875 C 75.277344 185.671875 75.203125 185.746094 75.203125 185.839844 C 75.203125 185.933594 75.277344 186.007812 75.371094 186.007812 C 75.460938 186.007812 75.539062 185.933594 75.539062 185.839844 C 75.539062 185.746094 75.460938 185.671875 75.371094 185.671875 " fill-opacity="1" fill-rule="nonzero"/><path fill="#e9e9e9" d="M 74.347656 183.691406 C 74.253906 183.691406 74.179688 183.769531 74.179688 183.863281 C 74.179688 183.957031 74.253906 184.03125 74.347656 184.03125 C 74.441406 184.03125 74.515625 183.957031 74.515625 183.863281 C 74.515625 183.769531 74.441406 183.691406 74.347656 183.691406 " fill-opacity="1" fill-rule="nonzero"/><path fill="#e9e9e9" d="M 74.878906 185.238281 C 74.785156 185.238281 74.707031 185.316406 74.707031 185.410156 C 74.707031 185.503906 74.785156 185.578125 74.878906 185.578125 C 74.972656 185.578125 75.046875 185.503906 75.046875 185.410156 C 75.046875 185.316406 74.972656 185.238281 74.878906 185.238281 " fill-opacity="1" fill-rule="nonzero"/><path fill="#e9e9e9" d="M 74.878906 183.921875 C 74.785156 183.921875 74.707031 184 74.707031 184.089844 C 74.707031 184.183594 74.785156 184.261719 74.878906 184.261719 C 74.972656 184.261719 75.046875 184.183594 75.046875 184.089844 C 75.046875 184 74.972656 183.921875 74.878906 183.921875 " fill-opacity="1" fill-rule="nonzero"/><path fill="#e9e9e9" d="M 74.878906 183.261719 C 74.785156 183.261719 74.707031 183.339844 74.707031 183.433594 C 74.707031 183.527344 74.785156 183.601562 74.878906 183.601562 C 74.972656 183.601562 75.046875 183.527344 75.046875 183.433594 C 75.046875 183.339844 74.972656 183.261719 74.878906 183.261719 " fill-opacity="1" fill-rule="nonzero"/><path fill="#e9e9e9" d="M 74.878906 184.582031 C 74.785156 184.582031 74.707031 184.65625 74.707031 184.75 C 74.707031 184.84375 74.785156 184.921875 74.878906 184.921875 C 74.972656 184.921875 75.046875 184.84375 75.046875 184.75 C 75.046875 184.65625 74.972656 184.582031 74.878906 184.582031 " fill-opacity="1" fill-rule="nonzero"/><path fill="#e9e9e9" d="M 76.921875 183.921875 C 76.832031 183.921875 76.753906 184 76.753906 184.089844 C 76.753906 184.183594 76.832031 184.261719 76.921875 184.261719 C 77.015625 184.261719 77.089844 184.183594 77.089844 184.089844 C 77.089844 184 77.015625 183.921875 76.921875 183.921875 " fill-opacity="1" fill-rule="nonzero"/><path fill="#e9e9e9" d="M 74.878906 185.898438 C 74.785156 185.898438 74.707031 185.976562 74.707031 186.070312 C 74.707031 186.164062 74.785156 186.238281 74.878906 186.238281 C 74.972656 186.238281 75.046875 186.164062 75.046875 186.070312 C 75.046875 185.976562 74.972656 185.898438 74.878906 185.898438 " fill-opacity="1" fill-rule="nonzero"/><path fill="#e9e9e9" d="M 73.855469 184.582031 C 73.761719 184.582031 73.6875 184.65625 73.6875 184.75 C 73.6875 184.84375 73.761719 184.921875 73.855469 184.921875 C 73.949219 184.921875 74.023438 184.84375 74.023438 184.75 C 74.023438 184.65625 73.949219 184.582031 73.855469 184.582031 " fill-opacity="1" fill-rule="nonzero"/><path fill="#e9e9e9" d="M 73.855469 185.898438 C 73.761719 185.898438 73.6875 185.976562 73.6875 186.070312 C 73.6875 186.164062 73.761719 186.238281 73.855469 186.238281 C 73.949219 186.238281 74.023438 186.164062 74.023438 186.070312 C 74.023438 185.976562 73.949219 185.898438 73.855469 185.898438 " fill-opacity="1" fill-rule="nonzero"/><path fill="#e9e9e9" d="M 73.855469 185.238281 C 73.761719 185.238281 73.6875 185.316406 73.6875 185.410156 C 73.6875 185.503906 73.761719 185.578125 73.855469 185.578125 C 73.949219 185.578125 74.023438 185.503906 74.023438 185.410156 C 74.023438 185.316406 73.949219 185.238281 73.855469 185.238281 " fill-opacity="1" fill-rule="nonzero"/><path fill="#e9e9e9" d="M 73.324219 183.035156 C 73.230469 183.035156 73.15625 183.109375 73.15625 183.203125 C 73.15625 183.296875 73.230469 183.371094 73.324219 183.371094 C 73.417969 183.371094 73.492188 183.296875 73.492188 183.203125 C 73.492188 183.109375 73.417969 183.035156 73.324219 183.035156 " fill-opacity="1" fill-rule="nonzero"/><path fill="#e9e9e9" d="M 74.347656 185.671875 C 74.253906 185.671875 74.179688 185.746094 74.179688 185.839844 C 74.179688 185.933594 74.253906 186.007812 74.347656 186.007812 C 74.441406 186.007812 74.515625 185.933594 74.515625 185.839844 C 74.515625 185.746094 74.441406 185.671875 74.347656 185.671875 " fill-opacity="1" fill-rule="nonzero"/><path fill="#e9e9e9" d="M 74.347656 185.011719 C 74.253906 185.011719 74.179688 185.085938 74.179688 185.183594 C 74.179688 185.273438 74.253906 185.351562 74.347656 185.351562 C 74.441406 185.351562 74.515625 185.273438 74.515625 185.183594 C 74.515625 185.085938 74.441406 185.011719 74.347656 185.011719 " fill-opacity="1" fill-rule="nonzero"/><path fill="#e9e9e9" d="M 73.855469 183.261719 C 73.761719 183.261719 73.6875 183.339844 73.6875 183.433594 C 73.6875 183.527344 73.761719 183.601562 73.855469 183.601562 C 73.949219 183.601562 74.023438 183.527344 74.023438 183.433594 C 74.023438 183.339844 73.949219 183.261719 73.855469 183.261719 " fill-opacity="1" fill-rule="nonzero"/><path fill="#e9e9e9" d="M 73.855469 183.921875 C 73.761719 183.921875 73.6875 184 73.6875 184.089844 C 73.6875 184.183594 73.761719 184.261719 73.855469 184.261719 C 73.949219 184.261719 74.023438 184.183594 74.023438 184.089844 C 74.023438 184 73.949219 183.921875 73.855469 183.921875 " fill-opacity="1" fill-rule="nonzero"/><path fill="#e9e9e9" d="M 74.347656 184.351562 C 74.253906 184.351562 74.179688 184.429688 74.179688 184.523438 C 74.179688 184.613281 74.253906 184.691406 74.347656 184.691406 C 74.441406 184.691406 74.515625 184.613281 74.515625 184.523438 C 74.515625 184.429688 74.441406 184.351562 74.347656 184.351562 " fill-opacity="1" fill-rule="nonzero"/><path fill="#e9e9e9" d="M 76.394531 183.691406 C 76.300781 183.691406 76.222656 183.769531 76.222656 183.863281 C 76.222656 183.957031 76.300781 184.03125 76.394531 184.03125 C 76.484375 184.03125 76.5625 183.957031 76.5625 183.863281 C 76.5625 183.769531 76.484375 183.691406 76.394531 183.691406 " fill-opacity="1" fill-rule="nonzero"/><path fill="#e9e9e9" d="M 76.394531 183.035156 C 76.300781 183.035156 76.222656 183.109375 76.222656 183.203125 C 76.222656 183.296875 76.300781 183.371094 76.394531 183.371094 C 76.484375 183.371094 76.5625 183.296875 76.5625 183.203125 C 76.5625 183.109375 76.484375 183.035156 76.394531 183.035156 " fill-opacity="1" fill-rule="nonzero"/><path fill="#e9e9e9" d="M 76.394531 184.351562 C 76.300781 184.351562 76.222656 184.429688 76.222656 184.523438 C 76.222656 184.613281 76.300781 184.691406 76.394531 184.691406 C 76.484375 184.691406 76.5625 184.613281 76.5625 184.523438 C 76.5625 184.429688 76.484375 184.351562 76.394531 184.351562 " fill-opacity="1" fill-rule="nonzero"/><path fill="#e9e9e9" d="M 76.394531 185.671875 C 76.300781 185.671875 76.222656 185.746094 76.222656 185.839844 C 76.222656 185.933594 76.300781 186.007812 76.394531 186.007812 C 76.484375 186.007812 76.5625 185.933594 76.5625 185.839844 C 76.5625 185.746094 76.484375 185.671875 76.394531 185.671875 " fill-opacity="1" fill-rule="nonzero"/><path fill="#e9e9e9" d="M 76.394531 185.011719 C 76.300781 185.011719 76.222656 185.085938 76.222656 185.183594 C 76.222656 185.273438 76.300781 185.351562 76.394531 185.351562 C 76.484375 185.351562 76.5625 185.273438 76.5625 185.183594 C 76.5625 185.085938 76.484375 185.011719 76.394531 185.011719 " fill-opacity="1" fill-rule="nonzero"/><path fill="#e9e9e9" d="M 76.921875 185.898438 C 76.832031 185.898438 76.753906 185.976562 76.753906 186.070312 C 76.753906 186.164062 76.832031 186.238281 76.921875 186.238281 C 77.015625 186.238281 77.089844 186.164062 77.089844 186.070312 C 77.089844 185.976562 77.015625 185.898438 76.921875 185.898438 " fill-opacity="1" fill-rule="nonzero"/><path fill="#e9e9e9" d="M 76.921875 184.582031 C 76.832031 184.582031 76.753906 184.65625 76.753906 184.75 C 76.753906 184.84375 76.832031 184.921875 76.921875 184.921875 C 77.015625 184.921875 77.089844 184.84375 77.089844 184.75 C 77.089844 184.65625 77.015625 184.582031 76.921875 184.582031 " fill-opacity="1" fill-rule="nonzero"/><path fill="#e9e9e9" d="M 76.921875 185.238281 C 76.832031 185.238281 76.753906 185.316406 76.753906 185.410156 C 76.753906 185.503906 76.832031 185.578125 76.921875 185.578125 C 77.015625 185.578125 77.089844 185.503906 77.089844 185.410156 C 77.089844 185.316406 77.015625 185.238281 76.921875 185.238281 " fill-opacity="1" fill-rule="nonzero"/><path fill="#e9e9e9" d="M 75.371094 184.351562 C 75.277344 184.351562 75.203125 184.429688 75.203125 184.523438 C 75.203125 184.613281 75.277344 184.691406 75.371094 184.691406 C 75.460938 184.691406 75.539062 184.613281 75.539062 184.523438 C 75.539062 184.429688 75.460938 184.351562 75.371094 184.351562 " fill-opacity="1" fill-rule="nonzero"/><path fill="#e9e9e9" d="M 75.371094 183.035156 C 75.277344 183.035156 75.203125 183.109375 75.203125 183.203125 C 75.203125 183.296875 75.277344 183.371094 75.371094 183.371094 C 75.460938 183.371094 75.539062 183.296875 75.539062 183.203125 C 75.539062 183.109375 75.460938 183.035156 75.371094 183.035156 " fill-opacity="1" fill-rule="nonzero"/><path fill="#e9e9e9" d="M 75.371094 183.691406 C 75.277344 183.691406 75.203125 183.769531 75.203125 183.863281 C 75.203125 183.957031 75.277344 184.03125 75.371094 184.03125 C 75.460938 184.03125 75.539062 183.957031 75.539062 183.863281 C 75.539062 183.769531 75.460938 183.691406 75.371094 183.691406 " fill-opacity="1" fill-rule="nonzero"/><path fill="#e9e9e9" d="M 75.371094 185.011719 C 75.277344 185.011719 75.203125 185.085938 75.203125 185.183594 C 75.203125 185.273438 75.277344 185.351562 75.371094 185.351562 C 75.460938 185.351562 75.539062 185.273438 75.539062 185.183594 C 75.539062 185.085938 75.460938 185.011719 75.371094 185.011719 " fill-opacity="1" fill-rule="nonzero"/><path fill="#e9e9e9" d="M 75.898438 185.898438 C 75.808594 185.898438 75.734375 185.976562 75.734375 186.070312 C 75.734375 186.164062 75.808594 186.238281 75.898438 186.238281 C 75.992188 186.238281 76.070312 186.164062 76.070312 186.070312 C 76.070312 185.976562 75.992188 185.898438 75.898438 185.898438 " fill-opacity="1" fill-rule="nonzero"/><path fill="#e9e9e9" d="M 75.898438 185.238281 C 75.808594 185.238281 75.734375 185.316406 75.734375 185.410156 C 75.734375 185.503906 75.808594 185.578125 75.898438 185.578125 C 75.992188 185.578125 76.070312 185.503906 76.070312 185.410156 C 76.070312 185.316406 75.992188 185.238281 75.898438 185.238281 " fill-opacity="1" fill-rule="nonzero"/><path fill="#e9e9e9" d="M 75.898438 183.921875 C 75.808594 183.921875 75.734375 184 75.734375 184.089844 C 75.734375 184.183594 75.808594 184.261719 75.898438 184.261719 C 75.992188 184.261719 76.070312 184.183594 76.070312 184.089844 C 76.070312 184 75.992188 183.921875 75.898438 183.921875 " fill-opacity="1" fill-rule="nonzero"/><path fill="#e9e9e9" d="M 75.898438 183.261719 C 75.808594 183.261719 75.734375 183.339844 75.734375 183.433594 C 75.734375 183.527344 75.808594 183.601562 75.898438 183.601562 C 75.992188 183.601562 76.070312 183.527344 76.070312 183.433594 C 76.070312 183.339844 75.992188 183.261719 75.898438 183.261719 " fill-opacity="1" fill-rule="nonzero"/><path fill="#e9e9e9" d="M 75.898438 184.582031 C 75.808594 184.582031 75.734375 184.65625 75.734375 184.75 C 75.734375 184.84375 75.808594 184.921875 75.898438 184.921875 C 75.992188 184.921875 76.070312 184.84375 76.070312 184.75 C 76.070312 184.65625 75.992188 184.582031 75.898438 184.582031 " fill-opacity="1" fill-rule="nonzero"/><path fill="#e9e9e9" d="M 77.363281 186.667969 L 71.859375 186.667969 L 71.859375 182.605469 L 77.363281 182.605469 L 77.363281 186.667969 " fill-opacity="1" fill-rule="nonzero"/><path fill="#efccb4" d="M 76.097656 195.421875 L 75.121094 195.421875 C 75.242188 194.199219 75.335938 192.972656 75.402344 191.746094 L 76.097656 191.746094 L 76.097656 195.421875 M 74.613281 195.421875 L 73.128906 195.421875 L 73.128906 191.746094 L 74.390625 191.746094 C 74.320312 192.957031 74.230469 194.167969 74.109375 195.375 L 74.613281 195.421875 " fill-opacity="1" fill-rule="nonzero"/><path fill="#db8b75" d="M 75.121094 195.421875 L 74.613281 195.421875 L 74.109375 195.375 C 74.230469 194.167969 74.320312 192.957031 74.390625 191.746094 L 75.402344 191.746094 C 75.335938 192.972656 75.242188 194.199219 75.121094 195.421875 " fill-opacity="1" fill-rule="nonzero"/><path fill="#efccb4" d="M 76.394531 191.746094 L 75.402344 191.746094 C 75.414062 191.554688 75.425781 191.367188 75.433594 191.175781 L 76.394531 191.175781 L 76.394531 191.746094 M 74.390625 191.746094 L 72.832031 191.746094 L 72.832031 191.175781 L 74.421875 191.175781 C 74.410156 191.367188 74.402344 191.554688 74.390625 191.746094 " fill-opacity="1" fill-rule="nonzero"/><path fill="#db8b75" d="M 75.402344 191.746094 L 74.390625 191.746094 C 74.402344 191.554688 74.410156 191.367188 74.421875 191.175781 L 75.433594 191.175781 C 75.425781 191.367188 75.414062 191.554688 75.402344 191.746094 " fill-opacity="1" fill-rule="nonzero"/><path fill="#e9e9e9" d="M 73.855469 196.667969 L 75.371094 196.667969 L 75.371094 195.421875 L 73.855469 195.421875 L 73.855469 196.667969 " fill-opacity="1" fill-rule="nonzero"/><path fill="#e9e9e9" d="M 73.703125 196.667969 L 75.523438 196.667969 L 75.523438 196.859375 L 73.703125 196.859375 L 73.703125 196.667969 " fill-opacity="1" fill-rule="nonzero"/><path fill="#e9e9e9" d="M 74.746094 202.085938 L 74.480469 202.085938 L 74.480469 196.859375 L 74.746094 196.859375 L 74.746094 202.085938 " fill-opacity="1" fill-rule="nonzero"/></svg>